<svg xmlns="http://www.w3.org/2000/svg" width="512" height="512" viewBox="0 0 512 512"><path d="M7 507v-500h500v500h-500zm77.485-394.164c-4.039.271-7.841.781-11.637.734-11.777-.145-23.651.298-35.278-1.162-4.768-.599-7.457-.491-9.312 3.6-3.154 6.949-5.947 14.061-9.029 21.043-7.031 15.928-8.663 32.29-4.474 49.253 9.683 39.209 32.229 68.847 66.435 89.958 40.405 24.936 85.055 37.304 131.424 44.614 32.629 5.144 65.533 7.131 98.503 7.905 28.149.66 56.309.416 84.248-3.812 10.817-1.637 21.57-3.705 33.214-5.727-2.14 2.777-3.835 5.166-5.719 7.396-17.734 20.99-35.511 41.944-53.233 62.943-1.162 1.377-2.719 3.006-2.785 4.572-.079 1.891.697 4.887 2.044 5.582 5.649 2.916 11.618 5.233 17.536 7.604 3.162 1.266 6.46 2.193 9.909 3.344-1.375 2.219-2.428 3.919-3.48 5.619l1.03 1.174c1.846-1.106 4.044-1.875 5.479-3.375 8.972-9.381 18.137-18.614 26.553-28.48 16.528-19.377 32.719-39.046 48.824-58.776 7.55-9.249 14.811-18.759 21.694-28.509 1.978-2.802 2.183-6.854 3.2-10.332l-1.296-.439-3.578 3.858v-5.21c-1.696-.381-3.291-.815-4.913-1.094-21.62-3.707-42.352-10.057-61.872-20.241-16.062-8.381-32.266-16.491-48.407-24.718-1.225-.624-2.457-1.229-3.687-1.844-1.836-.82-4.728-1.596-7.511-1.313-2.217.226-4.659 1.355-6.298 2.853-.843.771-.148 3.222-.148 4.946-4.146 3.501-8.98 6.864-12.886 11.087-3.854 4.166-2.473 6.815 2.813 8.546 4.364 1.429 8.564 3.444 12.691 5.493 11.296 5.607 22.522 11.354 33.756 17.088 1.428.729 2.731 1.702 5.091 3.192-14.276 1.966-27.098 3.73-39.919 5.496-21.396 2.947-42.723 3.493-64.153-.268-20.472-3.593-41.051-6.615-61.638-9.5-25.723-3.604-50.702-9.548-73.632-22.223-33.751-18.658-60.294-44.238-75.623-80.227-2.514-5.902-4.925-12.258-5.369-18.547-.878-12.437-.361-24.974-.385-37.469-.003-1.771.192-3.543.312-5.617 4.456.802 8.404 1.167 9.825-4.457l-8.541-.535.222-4.025z" fill="none"/><path fill-rule="evenodd" clip-rule="evenodd" d="M84.485 112.836l-.222 4.026 8.541.535c-1.421 5.625-5.369 5.259-9.825 4.457-.121 2.074-.316 3.846-.312 5.617.024 12.496-.493 25.032.385 37.469.444 6.289 2.855 12.645 5.369 18.547 15.329 35.988 41.872 61.569 75.623 80.227 22.93 12.675 47.909 18.619 73.632 22.223 20.587 2.885 41.167 5.907 61.638 9.5 21.431 3.761 42.757 3.215 64.153.268 12.821-1.766 25.643-3.53 39.919-5.496-2.359-1.49-3.663-2.463-5.091-3.192-11.233-5.733-22.46-11.48-33.756-17.088-4.127-2.049-8.327-4.064-12.691-5.493-5.286-1.73-6.667-4.38-2.813-8.546 3.905-4.223 8.74-7.585 12.886-11.087 0-1.724-.694-4.175.148-4.946 1.639-1.498 4.081-2.627 6.298-2.853 2.783-.283 5.675.493 7.511 1.313 1.229.614 2.462 1.22 3.687 1.844 16.142 8.228 32.345 16.337 48.407 24.718 19.521 10.185 40.252 16.534 61.872 20.241 1.622.278 3.217.713 4.913 1.094v5.21l3.578-3.858 1.296.439c-1.018 3.479-1.223 7.53-3.2 10.332-6.884 9.75-14.145 19.26-21.694 28.509-16.105 19.73-32.296 39.399-48.824 58.776-8.416 9.866-17.581 19.1-26.553 28.48-1.435 1.5-3.633 2.269-5.479 3.375l-1.03-1.174 3.48-5.619c-3.449-1.15-6.747-2.078-9.909-3.344-5.918-2.371-11.887-4.688-17.536-7.604-1.347-.695-2.123-3.691-2.044-5.582.066-1.566 1.623-3.195 2.785-4.572 17.723-20.999 35.499-41.953 53.233-62.943 1.884-2.229 3.579-4.618 5.719-7.396-11.644 2.021-22.396 4.09-33.214 5.727-27.939 4.228-56.099 4.472-84.248 3.812-32.97-.774-65.874-2.762-98.503-7.905-46.369-7.311-91.019-19.679-131.424-44.614-34.206-21.11-56.751-50.749-66.435-89.958-4.189-16.963-2.558-33.325 4.474-49.253 3.082-6.982 5.875-14.094 9.029-21.043 1.856-4.09 4.544-4.199 9.312-3.6 11.626 1.46 23.501 1.017 35.278 1.162 3.796.046 7.598-.464 11.637-.735zm270.161 142.893c11.118 5.934 21.879 11.661 32.623 17.417 10.879 5.828 21.741 11.686 32.566 17.507-1.531 5.389-2.167 5.741-7.058 6.215-18.222 1.768-36.438 3.59-54.643 5.525-17.245 1.833-34.515 3.096-51.784.805-24.906-3.305-49.759-7.015-74.655-10.392-27.007-3.663-52.481-11.265-75.985-25.72-32.072-19.726-58.291-44.054-71.221-80.642-5.715-16.172-10.419-32.306-8.354-49.661.562-4.721 1.544-9.391 2.33-14.061-1.063-.333-1.524-.596-1.991-.607-13.811-.323-27.622-.671-41.435-.825-1.064-.012-2.723 1.143-3.121 2.145-2.185 5.511-4.688 10.936-2.434 17.261.908 2.548.656 5.63.451 8.435-1.312 17.977 2.88 34.683 11.325 50.452 3.771 7.04 7.123 14.342 11.375 21.077 9.012 14.272 19.436 27.711 32.908 37.852 31.395 23.63 69.227 33.503 105.131 47.435.456.177.987.152 1.474.262 35.66 8.026 71.774 12.483 108.28 14.115 38.888 1.737 77.559-.336 116.043-6.027 10.839-1.603 21.626-3.562 33.524-5.539-.784 2.272-.995 4.152-1.969 5.469-3.164 4.278-7.157 8.023-9.849 12.557-13.001 21.903-30.028 40.202-49.181 56.77-3.791 3.28-6.5 7.811-10.252 12.435l22.374 9.333c6.516-6.297 13.495-12.082 19.319-18.859 14.654-17.05 28.933-34.43 43.073-51.911 8.359-10.333 16.402-20.945 24.085-31.789 2.331-3.29 2.98-7.771 4.361-11.599-4.869-.497-8.761-1.262-12.646-1.229-17.235.142-33.188-4.676-48.443-12.204-19.992-9.865-39.899-19.9-59.909-29.729-1.518-.745-4.048-1.216-5.264-.46-4.051 2.52-7.724 5.66-11.048 8.187zm-327.642-116.426c-4.425 9.737-7.788 19.741-4.957 30.318 4.424 16.529 9.276 32.966 17.831 47.975 7.791 13.668 18.297 24.982 30.521 34.797-.289-1.146-.809-2.124-1.547-2.894-14.353-14.986-24.349-32.753-32.738-51.509-7.152-15.989-11.792-32.474-9.167-50.298.405-2.739.057-5.589.057-8.389zm388.395 202.296l-1.546-.52c-14.114 16.955-29.304 33.037-41.845 51.267 14.027-14.864 27.713-30.002 41.245-45.274 1.221-1.378 1.455-3.629 2.146-5.473zm7.19 5.214l-.579-.414c-7.357 7.467-14.715 14.934-22.072 22.4l.501.499c7.383-7.494 14.766-14.989 22.15-22.485z"/><path clip-rule="evenodd" d="M354.646 255.729c3.323-2.527 6.996-5.667 11.053-8.191 1.216-.756 3.746-.285 5.264.46 20.01 9.829 39.917 19.864 59.909 29.729 15.256 7.528 31.208 12.346 48.443 12.204 3.886-.032 7.777.732 12.646 1.229-1.381 3.827-2.03 8.309-4.361 11.599-7.683 10.844-15.726 21.456-24.085 31.789-14.141 17.481-28.419 34.861-43.073 51.911-5.824 6.777-12.804 12.562-19.319 18.859l-22.374-9.333c3.752-4.624 6.461-9.154 10.252-12.435 19.152-16.567 36.18-34.866 49.181-56.77 2.691-4.533 6.685-8.278 9.849-12.557.974-1.316 1.185-3.196 1.969-5.469-11.898 1.977-22.686 3.937-33.524 5.539-38.484 5.691-77.155 7.765-116.043 6.027-36.506-1.632-72.62-6.089-108.28-14.115-.487-.109-1.018-.085-1.474-.262-35.904-13.932-73.736-23.805-105.131-47.435-13.473-10.141-23.896-23.58-32.908-37.852-4.252-6.735-7.605-14.037-11.375-21.077-8.445-15.77-12.638-32.475-11.325-50.452.205-2.804.457-5.887-.451-8.435-2.254-6.325.249-11.75 2.434-17.261.398-1.002 2.056-2.157 3.121-2.145 13.813.154 27.624.502 41.435.825.467.011.928.274 1.991.607-.786 4.67-1.768 9.34-2.33 14.061-2.065 17.355 2.639 33.489 8.354 49.661 12.93 36.588 39.148 60.916 71.221 80.642 23.504 14.455 48.979 22.057 75.985 25.72 24.896 3.377 49.749 7.087 74.655 10.392 17.27 2.291 34.539 1.028 51.784-.805 18.204-1.936 36.421-3.758 54.643-5.525 4.891-.474 5.526-.826 7.058-6.215-10.825-5.821-21.688-11.679-32.566-17.507-10.749-5.752-21.509-11.479-32.628-17.413zM27.004 139.303c0 2.799.347 5.65-.057 8.39-2.624 17.824 2.016 34.309 9.167 50.298 8.389 18.756 18.385 36.523 32.738 51.509.738.77 1.258 1.749 1.547 2.894-12.225-9.815-22.731-21.129-30.521-34.797-8.555-15.009-13.407-31.446-17.831-47.975-2.831-10.578.533-20.582 4.957-30.319zM415.399 341.599c-.691 1.845-.926 4.096-2.146 5.473-13.532 15.272-27.218 30.41-41.245 45.274 12.541-18.229 27.73-34.312 41.845-51.267l1.546.52zM422.589 346.813c-7.384 7.495-14.767 14.99-22.15 22.485l-.501-.499c7.357-7.467 14.715-14.934 22.072-22.4l.579.414z" fill="none"/></svg>