<svg xmlns="http://www.w3.org/2000/svg" width="512" height="512" viewBox="0 0 512 512"><path d="M0 512v-512h512v512h-512zm89.685-189.788c2.328.159 4.073.705 5.559.305 7.292-1.963 14.442-4.468 21.776-6.241 15.109-3.653 30.554-3.276 45.963-3.229 9.392.028 18.803-.307 27.862-3.088 5.189-1.593 5.7-4.111 2.264-7.904 1.463-3.836 3.318-7.465 4.195-11.312 1.074-4.713-1.155-6.172-5.959-5.02-3.052.732-6.27.992-9.423 1.069-7.005.174-14.02-.004-21.025.168-3.496.086-6.98.628-10.469.962 6.216-6.14 12.345-11.634 19.135-16.155 11.68-7.779 23.183-16.194 35.833-22.079 17.25-8.026 35.646-13.597 53.301-20.817 27.405-11.208 55.596-15.669 84.664-9.028 25.944 5.928 50.109 15.495 64.373 40.187 3.815 6.604 7.756 13.139 11.173 18.92l-4.89 6.246 1.035.94c1.817-.602 5.012-2.036 5.236-1.674 2.001 3.241 3.122.741 4.803-.224 8.71-4.996 17.252-10.418 26.416-14.432 3.76-1.648 5.642-2.715 5.067-6.713-.688-4.782-1.413-9.563-1.963-14.362-1.097-9.581-3.232-18.867-9.086-26.775-18.992-25.66-44.715-39.913-76.572-42.921-34.847-3.29-68.218 3.881-100.802 15.375-27.343 9.646-53.426 22.111-78.514 36.47-14.972 8.568-29.464 18.016-43.751 27.677-8.288 5.605-15.745 12.415-24.124 19.121 1.247-7.736 2.382-15.003 3.593-22.257 2.636-15.793 5.327-31.577 7.955-47.371.49-2.945-.972-4.796-3.922-4.542-6.962.598-13.895 1.542-20.842 2.319-.285.031-.6-.206-.901-.317l-.208-4.12-1.102-.651c-.517.841-1.281 1.621-1.51 2.532-1.782 7.089-3.889 14.135-5.076 21.326-2.054 12.445-3.275 25.026-5.294 37.478-2.401 14.806-5.602 29.49-7.776 44.324-.811 5.53.298 11.337.531 17.016l1.809.063.666-1.266z" fill="none"/><path fill-rule="evenodd" clip-rule="evenodd" d="M89.685 322.212l-.667 1.267-1.809-.063c-.233-5.679-1.342-11.485-.531-17.016 2.174-14.834 5.375-29.519 7.776-44.324 2.019-12.452 3.24-25.032 5.294-37.478 1.187-7.191 3.294-14.237 5.076-21.326.229-.911.994-1.691 1.51-2.532l1.102.651.208 4.12c.301.111.616.348.901.317 6.947-.778 13.88-1.721 20.842-2.319 2.95-.253 4.412 1.597 3.922 4.542-2.627 15.794-5.318 31.578-7.955 47.371-1.211 7.254-2.347 14.521-3.593 22.257 8.379-6.706 15.836-13.516 24.124-19.121 14.287-9.661 28.779-19.109 43.751-27.677 25.088-14.358 51.171-26.824 78.514-36.47 32.584-11.495 65.955-18.665 100.802-15.375 31.857 3.008 57.58 17.262 76.572 42.921 5.854 7.908 7.989 17.195 9.086 26.775.55 4.799 1.274 9.58 1.963 14.362.574 3.998-1.308 5.064-5.067 6.713-9.164 4.014-17.706 9.436-26.416 14.432-1.681.965-2.802 3.465-4.803.224-.225-.362-3.419 1.072-5.236 1.674l-1.035-.94 4.89-6.246c-3.417-5.781-7.357-12.315-11.173-18.92-14.264-24.692-38.429-34.258-64.373-40.187-29.068-6.641-57.259-2.18-84.664 9.028-17.655 7.22-36.05 12.791-53.301 20.817-12.65 5.884-24.153 14.299-35.833 22.079-6.79 4.521-12.918 10.016-19.135 16.155 3.489-.334 6.973-.876 10.469-.962 7.005-.172 14.02.006 21.025-.168 3.154-.077 6.371-.337 9.423-1.069 4.804-1.152 7.034.307 5.959 5.02-.876 3.848-2.731 7.477-4.195 11.312 3.437 3.793 2.925 6.312-2.264 7.904-9.059 2.781-18.471 3.116-27.862 3.088-15.41-.048-30.854-.425-45.963 3.229-7.333 1.773-14.484 4.278-21.776 6.241-1.486.399-3.231-.147-5.558-.306zm332.479-44.354c9.382-4.979 18.488-9.696 27.425-14.71 1.069-.599 1.634-2.782 1.72-4.271.341-5.903-4.629-9.327-6.975-13.992-6.544-13.017-15.976-23.286-28.236-31.37-18.899-12.46-38.612-21.99-61.973-22.76-17.626-.582-34.731 2.075-52.016 4.846-14.166 2.271-28.073 4.835-41.585 9.725-23.183 8.389-45.664 18.281-67.197 30.197-22.097 12.23-43.25 25.902-62.769 41.945-5.906 4.856-11.834 9.685-17.751 14.527l-1.283-.379c.385-3.624.864-7.245 1.139-10.879 1.271-16.825 1.403-33.79 7.349-49.964 2.512-6.833 5.328-13.711 3.79-21.313-.58.034-.913.07-1.245.071-15.586.043-17.781 1.834-20.297 16.964-3.778 22.717-7.898 45.391-11.006 68.2-1.1 8.068-2.854 16.677 1.207 24.468 2.757-1.165 5.625-2.011 8.107-3.488 9.459-5.631 19.786-8.634 30.642-9.417 17.426-1.255 34.89-1.979 52.338-2.91 6.347-.339 9.939-5.029 9.195-10.986h-55.365c1.131-1.775 1.892-4.083 3.497-5.303 9.489-7.218 19.147-14.22 28.801-21.224 12.514-9.078 25.093-18.013 39.783-23.555 13.359-5.04 26.625-10.327 39.849-15.708 20.532-8.354 41.147-15.628 63.988-14.811 26.559.95 51.889 4.908 73.702 21.596 10.728 8.208 21.043 16.729 27.841 28.54 2.868 4.981 4.841 10.468 7.325 15.961zm26.062-30.889c-.197-7.494-2.236-14.518-7.351-19.815-12.726-13.178-26.228-25.538-43.88-32.146-5.383-2.015-10.995-3.425-16.504-5.112 27.634 13.369 54.433 27.055 67.735 57.073zm-327.197 12.913l1.852.169c2.581-15.461 5.162-30.922 7.743-46.384l-1.309-.223c-2.546 12.545-5.157 25.079-7.587 37.648-.555 2.868-.483 5.856-.699 8.79z"/><path clip-rule="evenodd" d="M422.164 277.858c-2.484-5.493-4.457-10.98-7.326-15.963-6.798-11.812-17.113-20.333-27.841-28.54-21.813-16.688-47.144-20.646-73.702-21.596-22.841-.817-43.456 6.457-63.988 14.811-13.224 5.381-26.49 10.668-39.849 15.708-14.69 5.542-27.27 14.477-39.783 23.555-9.654 7.004-19.312 14.006-28.801 21.224-1.604 1.22-2.365 3.527-3.497 5.303h55.365c.744 5.957-2.848 10.647-9.195 10.986-17.448.931-34.913 1.655-52.338 2.91-10.855.783-21.182 3.786-30.642 9.417-2.483 1.478-5.351 2.323-8.107 3.488-4.061-7.791-2.306-16.399-1.207-24.468 3.108-22.809 7.229-45.482 11.006-68.2 2.516-15.13 4.711-16.921 20.297-16.964.333 0 .666-.037 1.245-.071 1.538 7.602-1.278 14.481-3.79 21.313-5.946 16.174-6.077 33.139-7.349 49.964-.275 3.634-.754 7.255-1.139 10.879l1.283.379c5.917-4.843 11.845-9.671 17.751-14.527 19.518-16.043 40.671-29.715 62.769-41.945 21.533-11.916 44.014-21.808 67.197-30.197 13.512-4.89 27.419-7.453 41.585-9.725 17.284-2.771 34.39-5.428 52.016-4.846 23.36.771 43.073 10.3 61.973 22.76 12.261 8.084 21.692 18.354 28.236 31.37 2.346 4.666 7.315 8.089 6.975 13.992-.086 1.489-.65 3.673-1.72 4.271-8.936 5.016-18.042 9.733-27.424 14.712zM448.226 246.969c-13.302-30.018-40.101-43.705-67.734-57.074 5.509 1.688 11.121 3.098 16.504 5.112 17.652 6.609 31.154 18.969 43.88 32.146 5.113 5.299 7.152 12.322 7.35 19.816zM121.029 259.882c.216-2.934.144-5.921.698-8.791 2.43-12.569 5.042-25.103 7.587-37.648l1.309.223c-2.581 15.462-5.162 30.923-7.743 46.384l-1.851-.168z" fill="none"/></svg>