<svg xmlns="http://www.w3.org/2000/svg" width="512" height="512" viewBox="0 0 512 512"><path d="M165.494-84.506c-83.334 144.338-166.667 288.674-250 433.012l433.012 250c83.334-144.337 166.667-288.675 250-433.012-144.337-83.334-288.675-166.667-433.012-250zm-129.978 380.099c-3.362-2.255-6.4-4.598-9.711-6.455-10.271-5.763-20.333-12.084-31.133-16.633-4.428-1.865-6.702-3.303-6.265-7.773.744-7.595 1.881-15.15 2.703-22.738 1.875-17.31 8.643-32.296 20.753-44.892 27.991-29.114 62.334-43.509 102.513-44.688 47.459-1.392 92.311 10.221 136.124 27.075 30.83 11.861 60.318 26.591 89.259 42.405 24.708 13.503 48.973 27.794 71.055 45.425 8.55 6.826 16.828 13.993 25.901 21.566-.465-3.476-.738-6.392-1.255-9.265-4.863-27.045-9.781-54.08-14.63-81.127-.318-1.773-.852-3.962-.126-5.353.877-1.677 3.047-3.883 4.561-3.812 6.351.299 12.679 1.277 18.989 2.182 3.371.485 6.691 1.331 10.254 2.059-.082-2.609-.144-4.608-.205-6.606l1.479-.501c1.045 1.881 2.564 3.646 3.057 5.662 3.079 12.61 6.4 25.188 8.755 37.941 4.626 25.045 8.812 50.174 12.896 75.314 1.914 11.785 3.446 23.651 4.533 35.536.312 3.416-1.536 7.027-2.395 10.549l-1.342-.268-1.17-5.131-2.604 4.512c-1.66-.518-3.258-.939-4.802-1.509-20.577-7.6-41.706-12.467-63.704-13.407-18.101-.772-36.188-1.852-54.281-2.796-1.372-.073-2.742-.165-4.114-.247-2-.208-4.892-.981-7.16-2.618-1.807-1.305-3.357-3.504-4.027-5.62-.346-1.088 1.481-2.864 2.344-4.357-1.839-5.105-4.346-10.435-5.616-16.044-1.254-5.535 1.267-7.139 6.71-5.994 4.494.944 9.139 1.299 13.737 1.588 12.586.792 25.183 1.428 37.777 2.079 1.602.083 3.217-.107 6.005-.219-11.381-8.841-21.602-16.779-31.822-24.72-17.057-13.25-35.253-24.386-55.692-31.845-19.525-7.124-38.858-14.796-58.131-22.592-24.078-9.741-48.682-17.082-74.877-17.57-38.559-.717-74.336 8.164-105.605 31.667-5.129 3.854-10.395 8.152-13.923 13.377-6.98 10.332-12.8 21.448-19.068 32.257-.889 1.532-1.606 3.165-2.538 5.021 4.259 1.533 7.861 3.191 6.28 8.772l-7.665-3.808c-.635 1.249-1.128 2.225-1.824 3.601z" fill="none"/><path fill-rule="evenodd" clip-rule="evenodd" d="M35.516 295.593l1.821-3.599 7.665 3.808c1.582-5.581-2.021-7.239-6.28-8.772.932-1.855 1.649-3.488 2.538-5.021 6.268-10.81 12.088-21.926 19.068-32.257 3.528-5.225 8.794-9.523 13.923-13.377 31.269-23.503 67.046-32.384 105.605-31.667 26.195.488 50.799 7.83 74.877 17.57 19.272 7.795 38.605 15.468 58.131 22.592 20.439 7.458 38.636 18.595 55.692 31.845l31.822 24.72c-2.788.111-4.403.302-6.005.219-12.595-.651-25.191-1.287-37.777-2.079-4.599-.289-9.243-.644-13.737-1.588-5.443-1.145-7.964.459-6.71 5.994 1.271 5.609 3.777 10.938 5.616 16.044-.862 1.493-2.689 3.27-2.344 4.357.67 2.116 2.221 4.315 4.027 5.62 2.269 1.637 5.16 2.41 7.16 2.618 1.372.082 2.742.174 4.114.247 18.094.944 36.181 2.023 54.281 2.796 21.998.94 43.127 5.808 63.704 13.407 1.544.569 3.142.991 4.802 1.509l2.604-4.512 1.17 5.131 1.342.268c.858-3.521 2.706-7.133 2.395-10.549-1.087-11.885-2.619-23.751-4.533-35.536-4.083-25.14-8.27-50.269-12.896-75.314-2.354-12.752-5.676-25.331-8.755-37.941-.492-2.017-2.012-3.781-3.057-5.662l-1.479.501c.062 1.999.123 3.998.205 6.606-3.562-.729-6.883-1.574-10.254-2.059-6.311-.905-12.639-1.883-18.989-2.182-1.514-.071-3.684 2.135-4.561 3.812-.726 1.39-.192 3.579.126 5.353 4.849 27.047 9.767 54.082 14.63 81.127.517 2.873.79 5.789 1.255 9.265-9.073-7.573-17.352-14.74-25.901-21.566-22.082-17.631-46.347-31.922-71.055-45.425-28.94-15.814-58.429-30.544-89.259-42.405-43.812-16.854-88.664-28.467-136.124-27.075-40.179 1.179-74.522 15.574-102.513 44.688-12.11 12.595-18.877 27.582-20.753 44.892-.822 7.588-1.959 15.143-2.703 22.738-.437 4.471 1.837 5.908 6.265 7.773 10.8 4.549 20.862 10.87 31.133 16.633 3.314 1.855 6.352 4.198 9.714 6.453zm305.413 11.332c12.596.419 24.778.84 36.961 1.228 12.335.393 24.671.751 36.957 1.122 1.368-5.433.993-6.056-3.005-8.911-14.896-10.642-29.762-21.328-44.56-32.106-14.018-10.21-28.343-19.938-44.444-26.589-23.222-9.591-46.6-18.805-69.849-28.329-25.22-10.331-51.083-16.485-78.665-15.719-37.638 1.047-72.508 9.006-102 34.228-13.036 11.148-25.177 22.768-32.065 38.831-1.874 4.369-3.358 8.905-5.012 13.342-1.088-.242-1.619-.245-2.028-.469-12.123-6.626-24.257-13.229-36.296-20.003-.928-.522-1.787-2.351-1.63-3.419.864-5.864 1.409-11.814 6.522-16.164 2.061-1.753 3.384-4.548 4.608-7.08 7.852-16.225 19.835-28.595 35.034-38.029 6.786-4.212 13.34-8.86 20.391-12.566 14.94-7.854 30.687-14.281 47.425-16.326 39.003-4.767 76.704 5.599 114.763 11.486.483.075.931.361 1.408.511 34.896 10.879 68.399 25.076 100.83 41.916 34.547 17.939 67 39.07 97.482 63.241 8.586 6.808 16.947 13.898 26.264 21.56.457-2.36 1.214-4.094 1.029-5.721-.601-5.287-2.187-10.526-2.251-15.799-.308-25.469-5.904-49.83-14.207-73.754-1.643-4.736-1.724-10.014-2.661-15.895 8.712 1.125 16.555 2.138 24.043 3.104 2.494 8.711 5.646 17.211 7.302 25.992 4.166 22.093 7.842 44.283 11.347 66.493 2.073 13.128 3.732 26.34 4.964 39.572.374 4.015-1.305 8.221-2.022 12.226-4.465-2.004-8.218-3.288-11.566-5.259-14.855-8.74-31.079-12.544-48.056-13.652-22.246-1.452-44.504-2.716-66.748-4.208-1.687-.113-4.113-.97-4.788-2.233-2.252-4.216-3.863-8.773-5.477-12.621zm-341.96-62.994c1.038-10.645 3.127-20.99 10.866-28.735 12.097-12.103 24.517-23.912 39.431-32.632 13.58-7.941 28.336-12.486 43.831-14.875-.824.849-1.764 1.436-2.787 1.733-19.924 5.802-37.464 16.191-54.107 28.24-14.188 10.27-26.447 22.227-33.088 38.974-1.02 2.575-2.746 4.87-4.146 7.295zm437.509 19.005l-1.599-.323c-3.746-21.741-8.859-43.263-10.605-65.321 4.716 19.887 8.999 39.839 13.082 59.832.368 1.801-.555 3.868-.878 5.812zm8.833-.922l-.708.069c-2.639-10.146-5.276-20.291-7.915-30.436l.684-.182c2.646 10.183 5.292 20.366 7.939 30.549z"/><path clip-rule="evenodd" d="M340.929 306.925c1.614 3.849 3.226 8.405 5.477 12.619.675 1.264 3.102 2.12 4.788 2.233 22.244 1.492 44.502 2.756 66.748 4.208 16.977 1.108 33.2 4.912 48.056 13.652 3.349 1.971 7.102 3.255 11.566 5.259.718-4.005 2.396-8.211 2.022-12.226-1.231-13.232-2.891-26.444-4.964-39.572-3.505-22.21-7.181-44.4-11.347-66.493-1.655-8.781-4.808-17.281-7.302-25.992l-24.043-3.104c.938 5.88 1.019 11.158 2.661 15.895 8.303 23.924 13.899 48.285 14.207 73.754.064 5.272 1.65 10.512 2.251 15.799.185 1.627-.572 3.36-1.029 5.721-9.316-7.661-17.678-14.752-26.264-21.56-30.482-24.171-62.936-45.302-97.482-63.241-32.431-16.84-65.935-31.037-100.83-41.916-.478-.149-.925-.436-1.408-.511-38.06-5.887-75.76-16.253-114.763-11.486-16.738 2.045-32.485 8.473-47.425 16.326-7.051 3.707-13.605 8.354-20.391 12.566-15.199 9.434-27.182 21.805-35.034 38.029-1.225 2.531-2.547 5.327-4.608 7.08-5.114 4.35-5.659 10.3-6.522 16.164-.156 1.068.703 2.896 1.63 3.419 12.039 6.773 24.173 13.377 36.296 20.003.41.224.94.227 2.028.469 1.654-4.437 3.138-8.973 5.012-13.342 6.888-16.063 19.029-27.682 32.065-38.831 29.492-25.221 64.362-33.181 102-34.228 27.583-.766 53.445 5.388 78.665 15.719 23.249 9.524 46.627 18.737 69.849 28.329 16.102 6.65 30.427 16.379 44.444 26.589 14.798 10.778 29.663 21.465 44.56 32.106 3.998 2.855 4.373 3.479 3.005 8.911-12.286-.371-24.622-.729-36.957-1.122-12.183-.386-24.366-.807-36.961-1.226zM-1.031 243.931c1.4-2.425 3.126-4.719 4.146-7.295 6.641-16.748 18.9-28.704 33.088-38.974 16.643-12.049 34.184-22.438 54.107-28.24 1.023-.298 1.963-.885 2.787-1.733-15.495 2.389-30.251 6.934-43.831 14.875-14.914 8.72-27.334 20.53-39.431 32.632-7.739 7.745-9.829 18.09-10.866 28.735zM436.478 262.936c.323-1.943 1.246-4.011.878-5.812-4.083-19.993-8.366-39.945-13.082-59.832 1.746 22.058 6.859 43.58 10.605 65.321l1.599.323zM445.311 262.014l-7.939-30.548-.684.182c2.639 10.145 5.276 20.29 7.915 30.436l.708-.07z" fill="none"/></svg>