<svg xmlns="http://www.w3.org/2000/svg" width="512" height="512" viewBox="0 0 512 512"><path d="M303.327 331.08h-24.54c-.771-.068-1.539-.188-2.31-.198-16.643-.227-33.287-.312-49.925-.703-10.907-.257-21.714-1.672-32.401-3.925-.477-.101-1.043-.024-1.513.133-2.285.765-3.901-.082-4.521-2.446-1.943-7.423-2.858-14.991-3.097-22.644-.428-13.742 1.017-27.416 1.527-41.124.325-8.743.129-17.506.121-26.26-.001-.68-.22-1.462-.599-2.019-1.114-1.636-1.07-2.706.594-3.812 6.734-4.475 12.418-10.146 18.169-15.752 5.818-5.673 11.583-11.408 17.596-16.869 5.416-4.918 11.315-9.261 18.281-11.796 2.668-.971 5.515-1.455 8.28-2.161h4.674c2.711.725 5.531 1.181 8.111 2.229 5.677 2.306 10.499 6.089 15.454 9.604 13.031 9.246 24.504 20.3 35.936 31.375 2.614 2.532 4.593 5.756 6.658 8.801.742 1.093.923 2.44 2.706 2.394.512-.014 1.172.668 1.538 1.189.581.827 1.041 1.759 1.433 2.696 2.556 6.131 2.495 12.585 1.88 18.987-1.084 11.279-2.606 22.516-3.73 33.791-.754 7.564-.703 15.144.238 22.729.445 3.587.383 7.267.217 10.889-.107 2.334-.935 2.547-2.892 1.133-.597 2.151-2.183 2.807-4.218 2.872-1.799.06-3.594.226-5.391.344-2.758.181-5.517.361-8.276.543zm-10.556-114.508c-.584-.096-1.099-.212-1.62-.262-9.686-.926-19.363-1.942-29.059-2.739-11.765-.967-23.534-.851-35.28.426-3.009.327-5.109 1.915-6.469 4.596-1.873 3.692-2.399 7.684-2.607 11.726-.515 9.999.791 19.923 1.36 29.877.031.542.429 1.182.849 1.564 2.446 2.229 4.934 4.413 7.437 6.578 5.079 4.393 10.094 8.874 15.959 12.237 4.053 2.324 8.304 4.184 13.084 3.941 4.224-.215 8.105-1.406 10.677-5.186.228-.335.673-.537 1.043-.757.729-.433 1.62-.691 2.193-1.27 8.251-8.333 16.466-16.702 24.66-25.09.27-.276.376-.858.33-1.273-.43-3.952-1.069-7.887-1.341-11.848-.511-7.469-.819-14.955-1.216-22.52zm-96.802 104.589c.789.101 1.302.2 1.819.228 12.441.663 24.878 1.478 37.327 1.935 14.603.536 29.206.121 43.8-.592 10.214-.499 20.432-.814 30.639.183l3.979.389c-.147-2.599-1.348-4.537-2.953-6.169-2.213-2.252-4.448-4.524-6.929-6.461-10.32-8.055-20.735-15.987-31.118-23.961-.296-.228-.626-.412-.94-.617-1.179.829-2.272 1.642-3.409 2.391-3.907 2.577-8.112 4.408-12.883 3.693-2.904-.436-5.769-1.327-8.558-2.284-2.223-.764-4.306-1.936-6.095-2.762-1.118 1.081-1.997 2.173-3.096 2.956-11.767 8.391-23.709 16.541-34.804 25.841-2.114 1.77-4.366 3.376-6.779 5.23zm119.993-6.381c-.144-1.777-.292-3.158-.361-4.544-.492-9.821 1.062-19.511 1.89-29.249.692-8.142 1.431-16.285 1.864-24.443.212-4.002-.223-8.038-.37-12.236-2.202.631-4.161 1.003-5.967 1.746-4.874 2.005-8.765 5.458-12.268 9.244-5.582 6.035-10.831 12.378-16.381 18.444-2.717 2.97-5.793 5.611-8.674 8.369 7.235 5.235 14.211 10.116 21.002 15.242 6.823 5.15 13.364 10.653 19.265 17.427zm-122.21-70.113c0 .508-.024.873.004 1.234.187 2.375.544 4.75.551 7.125.024 9.726-.019 19.454-.109 29.18-.102 10.99-.283 21.981-.421 32.973-.004.297.091.595.158 1 .426-.354.729-.596 1.022-.85 6.979-6.059 13.899-12.188 20.954-18.157 6.023-5.097 11.678-10.781 19.546-13.212-15.145-11.749-28.86-24.912-41.705-39.293zm51.882-55.085c.648.461 1.022.766 1.43 1.012 7.992 4.817 16.009 9.594 23.97 14.462 2.021 1.236 4.021 2.215 6.455 2.365 2.434.149 4.849.618 7.272.946l.328-.439c-.204-.048-.464-.032-.604-.154-6.757-5.825-13.904-11.117-21.592-15.648-5.272-3.108-10.916-4.14-17.259-2.544zm-51.878 40.51c-2.536 1.327-2.885 2.339-1.256 4.033 6.739 7.01 13.509 13.989 20.271 20.976.313.324.663.612 1.272 1.17-.605-4.066-1.135-7.715-1.716-11.355-.047-.292-.421-.709-.699-.759-2.709-.488-4.811-2.073-6.766-3.823-3.729-3.338-7.363-6.779-11.106-10.242zm68.253-24.29c.002.003-.03-.095-.098-.139-6.742-4.373-13.185-9.14-19.192-14.487-.259-.23-.849-.373-1.138-.239-1.962.906-3.885 1.898-5.817 2.86.137.292.154.404.22.459 5.153 4.326 10.688 8.095 16.59 11.323.244.134.551.211.83.213 2.867.016 5.734.01 8.605.01zm-36.414-4.441l-22.424 21.551c.707.469 1.452.834 2.034 1.375 1.927 1.789 3.794 3.641 5.816 5.596.416-3.238.609-6.052 1.161-8.792 1.606-7.979 5.431-13.203 14.243-14.543 1.639-.249 3.275-.516 5.064-.798-2.002-1.492-3.826-2.85-5.894-4.389zm-13.709 39.8c-.201-2.421-.349-4.496-.574-6.562-.032-.292-.426-.563-.685-.811-2.55-2.436-5.155-4.817-7.628-7.329-.595-.604-.76-1.632-1.125-2.47l-6.16 4.857c5.064 4.494 9.771 9.257 16.172 12.315zm33.454-35.679c-3.829-3.292-7.571-6.52-11.337-9.719-.195-.166-.697-.241-.877-.111-1.79 1.286-3.541 2.624-5.417 4.033 5.313 4.051 10.715 6.954 17.631 5.797zm53.9 22.983c1.168.57 2.137.827 2.82 1.416 2.979 2.567 5.904 5.2 8.789 7.875.953.885 1.72.724 2.745-.048-5.023-5.564-9.98-11.053-14.937-16.542l-.316.217c.317 2.494.634 4.989.899 7.082zm2.268 17.422l6.645-5.473-8.311-7.522c.514 4.02 1.084 8.457 1.666 12.995z"/><path clip-rule="evenodd" d="M303.327 331.08l8.276-.544c1.797-.118 3.592-.284 5.391-.344 2.035-.065 3.621-.721 4.218-2.872 1.957 1.414 2.784 1.201 2.892-1.133.166-3.622.229-7.302-.217-10.889-.941-7.585-.992-15.164-.238-22.729 1.124-11.275 2.646-22.512 3.73-33.791.615-6.401.676-12.855-1.88-18.987-.392-.938-.852-1.869-1.433-2.696-.366-.521-1.026-1.203-1.538-1.189-1.783.047-1.964-1.3-2.706-2.394-2.065-3.045-4.044-6.269-6.658-8.801-11.432-11.074-22.904-22.128-35.936-31.375-4.955-3.515-9.777-7.298-15.454-9.604-2.58-1.048-5.4-1.504-8.111-2.229h77.417v149.576c-9.251.001-18.502.001-27.753.001zM248.989 181.504c-2.765.706-5.611 1.19-8.28 2.161-6.966 2.535-12.865 6.878-18.281 11.796-6.013 5.461-11.778 11.196-17.596 16.869-5.75 5.607-11.435 11.277-18.169 15.752-1.665 1.106-1.708 2.176-.594 3.812.379.557.598 1.339.599 2.019.009 8.754.205 17.517-.121 26.26-.51 13.708-1.955 27.382-1.527 41.124.239 7.652 1.154 15.221 3.097 22.644.619 2.364 2.235 3.211 4.521 2.446.47-.157 1.036-.233 1.513-.133 10.688 2.253 21.495 3.668 32.401 3.925 16.638.392 33.283.477 49.925.703.771.011 1.539.13 2.31.198h-97.283v-149.576h67.485zM292.771 216.572c.397 7.565.705 15.051 1.217 22.523.271 3.961.911 7.896 1.341 11.848.046.415-.061.997-.33 1.273-8.194 8.388-16.409 16.757-24.66 25.09-.573.578-1.465.837-2.193 1.27-.37.22-.815.422-1.043.757-2.571 3.779-6.453 4.971-10.677 5.186-4.78.242-9.032-1.617-13.084-3.941-5.865-3.363-10.88-7.845-15.959-12.237-2.503-2.165-4.991-4.35-7.437-6.578-.42-.383-.818-1.022-.849-1.564-.569-9.954-1.875-19.878-1.36-29.877.208-4.042.734-8.034 2.607-11.726 1.359-2.682 3.46-4.269 6.469-4.596 11.746-1.277 23.515-1.393 35.28-.426 9.695.796 19.373 1.812 29.059 2.739.52.047 1.035.163 1.619.259zm-26.782 31.331l.005-.119c.925 0 1.864.104 2.771-.021 2.402-.329 4.807-.685 7.18-1.174 1.334-.275 2.248-1.159 2.299-2.646.051-1.48-.792-2.334-2.089-2.824-.408-.154-.835-.265-1.259-.371-4.293-1.073-8.661-1.235-13.049-.972-5.586.335-11.165.813-16.753 1.088-3.935.193-7.889.024-11.82.263-2.354.143-4.73.58-7.003 1.22-1.84.518-1.966 2.014-.358 3.084.866.577 1.916 1.066 2.932 1.191 2.695.331 5.417.596 8.129.606 4.815.018 9.635-.338 14.446-.23 4.861.107 9.713.588 14.569.905zm-26.471-22.27v.027c-2.577 0-5.155-.061-7.729.022-1.692.054-3.416.161-5.046.564-.613.152-1.388 1.21-1.384 1.851.003.643.787 1.417 1.417 1.874.451.327 1.21.27 1.836.307 5.287.312 10.574.612 15.862.901 2.224.122 4.45.285 6.674.283 1.356 0 2.177-.901 1.85-2.196-.248-.981-.897-2.151-1.72-2.624-1.119-.643-2.562-.896-3.886-.967-2.618-.14-5.249-.042-7.874-.042zM195.969 321.161c2.413-1.854 4.665-3.46 6.778-5.231 11.095-9.3 23.037-17.45 34.804-25.841 1.099-.783 1.978-1.875 3.096-2.956 1.789.826 3.872 1.998 6.095 2.762 2.789.957 5.653 1.849 8.558 2.284 4.771.715 8.976-1.116 12.883-3.693 1.137-.749 2.23-1.562 3.409-2.391.314.205.645.39.94.617 10.383 7.974 20.798 15.906 31.118 23.961 2.48 1.937 4.716 4.209 6.929 6.461 1.605 1.632 2.806 3.57 2.953 6.169l-3.979-.389c-10.207-.997-20.425-.682-30.639-.183-14.594.713-29.197 1.128-43.8.592-12.449-.457-24.886-1.271-37.327-1.935-.516-.027-1.029-.126-1.818-.227zM315.962 314.78c-5.901-6.774-12.442-12.277-19.265-17.427-6.791-5.126-13.767-10.007-21.002-15.242 2.881-2.758 5.957-5.399 8.674-8.369 5.55-6.066 10.799-12.409 16.381-18.444 3.503-3.787 7.394-7.239 12.268-9.244 1.806-.743 3.765-1.115 5.967-1.746.147 4.199.582 8.234.37 12.236-.434 8.158-1.172 16.301-1.864 24.443-.828 9.738-2.382 19.428-1.89 29.249.069 1.386.217 2.767.361 4.544zM193.752 244.667c12.845 14.381 26.56 27.544 41.704 39.294-7.868 2.431-13.523 8.115-19.546 13.212-7.055 5.97-13.975 12.099-20.954 18.157-.293.254-.596.496-1.022.85-.067-.405-.162-.703-.158-1 .138-10.991.319-21.982.421-32.973.09-9.727.134-19.454.109-29.18-.006-2.375-.364-4.75-.551-7.125-.027-.362-.003-.727-.003-1.235zM245.634 189.582c6.343-1.595 11.987-.563 17.26 2.544 7.688 4.531 14.835 9.823 21.592 15.648.141.122.4.105.604.154l-.328.439c-2.424-.329-4.839-.797-7.272-.946-2.434-.149-4.435-1.129-6.455-2.365-7.961-4.868-15.978-9.645-23.97-14.462-.409-.246-.783-.551-1.431-1.012zM193.756 230.092c3.743 3.462 7.377 6.904 11.105 10.242 1.955 1.75 4.057 3.335 6.766 3.823.278.05.652.467.699.759.582 3.641 1.111 7.289 1.716 11.355-.609-.558-.958-.847-1.272-1.17-6.762-6.987-13.532-13.966-20.271-20.976-1.628-1.693-1.279-2.706 1.257-4.033zM262.009 205.802c-2.871 0-5.738.006-8.604-.009-.279-.001-.586-.079-.83-.213-5.902-3.229-11.437-6.998-16.59-11.323-.065-.055-.083-.167-.22-.459 1.932-.962 3.855-1.954 5.817-2.86.289-.134.879.009 1.138.239 6.007 5.348 12.45 10.114 19.192 14.487.067.044.099.141.097.138zM225.595 201.361c2.068 1.539 3.892 2.896 5.895 4.388-1.789.283-3.425.549-5.064.798-8.812 1.34-12.636 6.563-14.243 14.543-.552 2.741-.745 5.554-1.161 8.792-2.022-1.955-3.89-3.807-5.816-5.596-.582-.541-1.328-.906-2.034-1.375l22.423-21.55zM211.886 241.161c-6.401-3.058-11.108-7.821-16.172-12.314l6.16-4.857c.365.837.53 1.865 1.125 2.47 2.473 2.512 5.078 4.894 7.628 7.329.259.247.652.518.685.811.226 2.065.373 4.139.574 6.561zM245.34 205.482c-6.916 1.157-12.318-1.746-17.632-5.798 1.876-1.409 3.628-2.747 5.417-4.033.181-.13.682-.054.877.111 3.768 3.2 7.51 6.428 11.338 9.72zM299.24 228.465l-.898-7.083.316-.217 14.937 16.542c-1.025.772-1.792.933-2.745.048-2.885-2.675-5.81-5.308-8.789-7.875-.684-.588-1.653-.844-2.821-1.415zM301.508 245.887l-1.666-12.995c2.611 2.364 5.426 4.911 8.311 7.522l-6.645 5.473z" fill="none"/><path fill-rule="evenodd" clip-rule="evenodd" d="M265.989 247.903c-4.856-.317-9.708-.798-14.569-.907-4.811-.107-9.63.248-14.446.23-2.712-.01-5.434-.275-8.129-.606-1.016-.125-2.065-.614-2.932-1.191-1.608-1.07-1.482-2.566.358-3.084 2.272-.64 4.648-1.077 7.003-1.22 3.931-.239 7.885-.069 11.82-.263 5.589-.275 11.167-.753 16.753-1.088 4.388-.263 8.756-.101 13.049.972.424.106.851.217 1.259.371 1.297.49 2.14 1.344 2.089 2.824-.051 1.488-.965 2.372-2.299 2.646-2.373.489-4.777.845-7.18 1.174-.907.125-1.847.021-2.771.021l-.005.121zM239.518 225.633c2.625 0 5.256-.099 7.874.042 1.323.071 2.767.324 3.886.967.823.473 1.472 1.643 1.72 2.624.328 1.295-.494 2.196-1.85 2.196-2.225.001-4.451-.162-6.674-.283-5.288-.289-10.575-.589-15.862-.901-.626-.037-1.386.021-1.836-.307-.63-.457-1.413-1.231-1.417-1.874-.004-.641.771-1.699 1.384-1.851 1.63-.403 3.354-.51 5.046-.564 2.574-.083 5.153-.022 7.729-.022v-.027z"/></svg>