<svg xmlns="http://www.w3.org/2000/svg" width="512" height="512" viewBox="0 0 512 512"><path d="M1.035 514v-512.902h512.805v512.902h-512.805zm305.148-218.427c6.828-2.164 14.527-4.492 22.149-7.05 8.809-2.955 17.401-6.674 26.355-9.054 14.777-3.927 28.876-8.958 40.888-18.796 6.312-5.17 12.561-10.472 19.263-15.099 10.809-7.464 16.443-18.524 21.636-29.876 1.616-3.534 2.411-7.663 2.644-11.575 1.283-21.619-.13-43.009-8.19-63.363-2.172-5.483-5.773-10.583-9.515-15.215-4.246-5.258-9.387-9.681-15.688-12.728-3-1.451-5.642-3.795-4.042-8.349 1.101-3.134.763-6.745 1.325-10.1 2.066-12.322 4.297-24.616 6.35-36.94.979-5.875 2.525-11.819 2.336-17.684-.263-8.096-5.849-12.812-14.533-6.62-12.671 9.034-24.666 19.148-36.128 29.695-6.559 6.035-14.037 9.473-22.154 11.446-9.503 2.31-19.49 2.641-28.974 5.008-9.644 2.407-19.384.857-29.117 2.213-14.206 1.979-28.904.863-43.371.406-12.96-.41-25.109-3.347-32.812-15.392-.509-.796-1.337-1.536-2.188-1.942-7.35-3.514-14.806-6.809-22.09-10.453-4.062-2.033-8.163-4.216-11.7-7.021-5.334-4.229-13.711-4.261-17.206 1.487-2.943 4.84-5.733 10.586-6.028 16.069-.838 15.606-.285 31.284-.507 46.931-.03 2.113-.88 4.592-2.188 6.234-2.978 3.739-7.16 6.646-9.607 10.652-3.935 6.439-7.615 13.234-10.059 20.341-4.917 14.301-3.401 29.331-3.207 44.112.074 5.583.937 11.334 2.538 16.68 2.646 8.831 6.006 17.464 9.401 26.048 2.481 6.273 5.363 12.402 8.356 18.452 1.157 2.34 3.445 4.112 4.646 6.438 4.081 7.906 10.963 13.036 17.987 17.746 13.447 9.018 29.383 9.273 44.686 11.506 7.976 1.163 16.022 1.849 24.792 2.836-1.987 2.381-3.525 4.494-5.334 6.342-7.244 7.397-14.395 14.73-15.376 25.96-.124 1.412-3.147 3.664-4.818 3.655-6.798-.034-13.606-.659-20.384-1.329-7.464-.737-12.932-4.542-16.677-11.13-3.289-5.784-6.655-11.58-10.596-16.922-3.723-5.047-7.962-9.802-12.533-14.09-1.965-1.845-5.354-3.099-8.07-3.053-10.641.181-21.274.955-31.904 1.609-1.082.066-2.195.682-3.17 1.254-7.169 4.209-14.427 8.287-21.393 12.813-2.527 1.642-4.786 4.12-6.349 6.71-1.834 3.04-1.028 6.287 2.989 6.6 3.644.283 8.173.572 10.94-1.237 11.896-7.78 24.307-10.692 38.426-8.053 4.011.75 6.658 1.627 8.592 5.139 5.666 10.29 9.656 21.647 18.353 30.037 3.471 3.348 7.03 6.959 11.232 9.127 12.478 6.438 26.107 7.612 39.892 6.785 4.213-.253 6.762 1.255 8.046 4.966 1.188 3.43 2.377 6.931 2.92 10.499 1.785 11.729-3.519 22.054-7.011 32.702-.968 2.951-1.928 6.378-4.033 8.394-6.023 5.766-12.594 11.312-21.29 12.177-3.861.385-8.121-.637-11.829-2.016-3.98-1.481-7.526-4.132-11.261-6.271-.958-.241-.987-1.662-1.711-2.397-1.721-1.748-3.687-4.237-5.713-4.396-1.665-.13-4.107 2.349-5.195 4.249-1.075 1.877-1.617 4.659-1.11 6.73 1.485 6.072 3.714 11.959 5.453 17.977 1.98 6.854 6.964 10.141 13.519 10.674 10.762.874 21.603 1.76 32.354 1.301 4.331-.185 9.917-2.823 12.515-6.203 10.971-14.273 23.705-27.559 28.457-45.818 1.081-4.15 3.833-7.746 9.363-7.392.206 1.444.488 2.578.512 3.718.303 15.151.474 30.307.895 45.454.168 6.056-.477 11.75-2.936 17.437-1.916 4.432-3.144 8.631-9.223 8.221-1.527-.103-3.169.883-4.696 1.519-3.369 1.403-4.159 3.617-2.66 7.108 3.583 8.348 9.314 12.032 18.064 10.014 5.255-1.213 10.217-3.774 15.221-5.937 1.09-.472 2.151-1.673 2.631-2.793 4.124-9.632 8.31-19.179 7.997-30.099-.386-13.488-.208-26.993-.212-40.491-.001-1.979.26-3.97.537-5.936 1.529-10.849 3.099-21.691 4.66-32.535.356-2.478.733-4.952 1.101-7.427 1.253 1.549 1.615 2.979 1.552 4.39-.999 22.158 6.92 41.729 17.356 60.62 2.975 5.383 5.912 10.841 8.22 16.527 5.629 13.872 16.814 20.503 30.454 23.834 6.322 1.544 13.29-1.508 15.703-8.731 2.355-7.052-.429-15.145-6.948-16.98-9.328-2.628-13.492-9.311-18.109-17.255-11.344-19.522-17.852-40.527-22.964-62.213-.959-4.066-.82-6.902 4.356-8.246 1.643 3.532 3.406 7.076 4.946 10.716 1.229 2.905 1.794 6.147 3.325 8.86 9.807 17.364 22.719 32.194 39.177 43.345 7.13 4.83 15.688 8.425 24.103 10.232 7.908 1.7 16.468 2.425 24.354-3.048 10.518-7.298 15.899-17.091 16.539-29.444.45-8.7-4.213-11.359-12.152-7.52-2.21 1.069-4.18 2.709-6.105 4.275-1.805 1.468-3.393 3.198-5.097 4.791-4.654 4.351-9.606 5.662-15.947 3.185-18.74-7.32-31.256-21.229-40.672-38.181-7.334-13.205-13.724-26.935-20.581-40.406-.513-1.008-1.375-1.851-2.133-2.721-5.015-5.752-10.044-11.494-14.61-16.719z" fill="none"/><path fill-rule="evenodd" clip-rule="evenodd" d="M306.183 295.573c4.566 5.225 9.596 10.967 14.608 16.723.758.87 1.62 1.713 2.133 2.721 6.857 13.472 13.247 27.201 20.581 40.406 9.416 16.951 21.932 30.86 40.672 38.181 6.341 2.478 11.293 1.166 15.947-3.185 1.704-1.593 3.292-3.323 5.097-4.791 1.926-1.566 3.896-3.206 6.105-4.275 7.939-3.84 12.603-1.181 12.152 7.52-.64 12.354-6.021 22.146-16.539 29.444-7.887 5.473-16.446 4.748-24.354 3.048-8.414-1.808-16.973-5.402-24.103-10.232-16.458-11.15-29.37-25.98-39.177-43.345-1.531-2.713-2.096-5.955-3.325-8.86-1.54-3.64-3.304-7.184-4.946-10.716-5.177 1.344-5.315 4.18-4.356 8.246 5.112 21.686 11.62 42.69 22.964 62.213 4.617 7.944 8.781 14.627 18.109 17.255 6.52 1.836 9.304 9.929 6.948 16.98-2.413 7.224-9.381 10.275-15.703 8.731-13.64-3.331-24.825-9.962-30.454-23.834-2.308-5.687-5.245-11.145-8.22-16.527-10.437-18.892-18.355-38.462-17.356-60.62.063-1.411-.299-2.841-1.552-4.39-.367 2.475-.744 4.949-1.101 7.427-1.562 10.844-3.131 21.687-4.66 32.535-.277 1.966-.538 3.957-.537 5.936.004 13.498-.174 27.003.212 40.491.312 10.92-3.873 20.467-7.997 30.099-.479 1.12-1.541 2.321-2.631 2.793-5.004 2.162-9.966 4.724-15.221 5.937-8.75 2.019-14.481-1.666-18.064-10.014-1.499-3.491-.709-5.705 2.66-7.108 1.527-.636 3.169-1.621 4.696-1.519 6.079.41 7.307-3.789 9.223-8.221 2.459-5.687 3.104-11.381 2.936-17.437-.421-15.147-.592-30.303-.895-45.454-.023-1.14-.306-2.273-.512-3.718-5.531-.354-8.283 3.241-9.363 7.392-4.752 18.26-17.485 31.545-28.457 45.818-2.598 3.38-8.184 6.019-12.515 6.203-10.75.459-21.592-.427-32.354-1.301-6.555-.533-11.539-3.82-13.519-10.674-1.739-6.018-3.968-11.904-5.453-17.977-.507-2.071.035-4.854 1.11-6.73 1.088-1.9 3.53-4.379 5.195-4.249 2.026.159 3.992 2.648 5.713 4.396.724.735.753 2.156 1.711 2.397 3.735 2.14 7.281 4.79 11.261 6.271 3.708 1.379 7.967 2.4 11.829 2.016 8.696-.864 15.267-6.411 21.29-12.177 2.105-2.016 3.065-5.442 4.033-8.394 3.492-10.648 8.795-20.973 7.011-32.702-.543-3.568-1.733-7.069-2.92-10.499-1.284-3.711-3.833-5.219-8.046-4.966-13.785.827-27.414-.347-39.892-6.785-4.202-2.168-7.761-5.779-11.232-9.127-8.697-8.39-12.687-19.747-18.353-30.037-1.934-3.512-4.581-4.389-8.592-5.139-14.119-2.64-26.53.272-38.426 8.053-2.767 1.81-7.296 1.521-10.94 1.237-4.017-.312-4.824-3.56-2.989-6.6 1.563-2.59 3.822-5.068 6.349-6.71 6.966-4.526 14.224-8.604 21.393-12.813.975-.572 2.088-1.188 3.17-1.254 10.63-.654 21.263-1.429 31.904-1.609 2.716-.046 6.105 1.208 8.07 3.053 4.571 4.288 8.811 9.043 12.533 14.09 3.941 5.342 7.307 11.138 10.596 16.922 3.745 6.588 9.213 10.393 16.677 11.13 6.778.67 13.586 1.295 20.384 1.329 1.671.009 4.695-2.243 4.818-3.655.981-11.229 8.132-18.562 15.376-25.96 1.809-1.848 3.347-3.961 5.334-6.342-8.771-.987-16.816-1.673-24.792-2.836-15.303-2.232-31.239-2.488-44.686-11.506-7.024-4.71-13.906-9.84-17.987-17.746-1.201-2.326-3.489-4.099-4.646-6.438-2.993-6.05-5.875-12.179-8.356-18.452-3.396-8.584-6.756-17.217-9.401-26.048-1.601-5.346-2.464-11.097-2.538-16.68-.194-14.781-1.71-29.811 3.207-44.112 2.443-7.107 6.124-13.902 10.059-20.341 2.448-4.006 6.629-6.913 9.607-10.652 1.308-1.643 2.159-4.121 2.188-6.234.222-15.647-.331-31.325.507-46.931.294-5.483 3.085-11.229 6.028-16.069 3.495-5.749 11.872-5.717 17.206-1.487 3.537 2.805 7.637 4.988 11.7 7.021 7.284 3.644 14.74 6.939 22.09 10.453.852.407 1.679 1.146 2.188 1.942 7.703 12.045 19.852 14.982 32.812 15.392 14.467.457 29.165 1.573 43.371-.406 9.733-1.356 19.474.194 29.117-2.213 9.483-2.367 19.471-2.699 28.974-5.008 8.117-1.973 15.596-5.411 22.154-11.446 11.462-10.547 23.457-20.661 36.128-29.695 8.685-6.192 14.271-1.477 14.533 6.62.189 5.865-1.356 11.809-2.336 17.684-2.053 12.324-4.283 24.618-6.35 36.94-.562 3.354-.225 6.966-1.325 10.1-1.6 4.554 1.042 6.898 4.042 8.349 6.301 3.047 11.441 7.47 15.688 12.728 3.741 4.633 7.343 9.732 9.515 15.215 8.061 20.354 9.474 41.744 8.19 63.363-.232 3.912-1.027 8.041-2.644 11.575-5.192 11.352-10.827 22.412-21.636 29.876-6.702 4.627-12.95 9.929-19.263 15.099-12.012 9.838-26.11 14.869-40.888 18.796-8.954 2.38-17.547 6.099-26.355 9.054-7.62 2.554-15.319 4.882-22.147 7.046zm-28.942-23.853l.089-.818c13.824 0 27.65.099 41.474-.073 3.258-.04 6.652-.561 9.727-1.611 7.022-2.401 13.733-5.824 20.858-7.791 7.293-2.014 11.12-6.726 14.689-12.945 12.325-21.482 14.918-43.355 4.493-66.287-1.509-3.318-2.347-6.939-3.806-10.285-.595-1.364-1.952-2.437-3.082-3.517-1.441-1.376-2.935-2.719-4.536-3.899-1.267-.933-2.692-2.184-4.113-2.276-4.672-.304-9.383-.345-14.062-.126-11.221.525-22.659-1.866-33.621 2.464-1.001.395-2.301.024-3.461.025-6.489.003-12.998-.321-19.462.083-16.945 1.058-33.854 2.991-50.81 3.52-15.541.485-29.458 3.75-40.186 15.913-6.372 7.225-13.598 13.859-13.323 24.72.088 3.471-.768 6.956-.88 10.445-.161 4.977-1.002 10.204.167 14.895 2.581 10.348 8.263 19.258 16.231 26.381 2.413 2.156 5.914 3.947 9.083 4.271 24.823 2.527 49.684 4.657 74.531 6.911zm-101.6-97.256l-1.538-1.831-3.988-2.212c-.483.396-.862.553-.967.817-2.785 7.016-2.896 15.307-9.752 20.381-.108.08-.104.309-.16.465-1.959 5.472-3.626 11.073-5.95 16.386-3.253 7.438-3.679 14.684-.054 22.035 2.422 4.91 4.872 9.807 7.831 15.757.664-1.796.793-1.965.767-2.106-.091-.482-.229-.955-.362-1.429-5.162-18.404-4.511-36.143 5.887-52.834.621-.996 1.06-2.757.6-3.661-1.974-3.874.695-6.375 2.581-8.825 1.105-1.438 3.364-1.991 5.105-2.943zm27.074-34.34c3.145-4.846 5.68-8.938 8.398-12.904 5.868-8.561 5.759-9.094-1.857-13.163-3.96 3.006-7.629 5.393-10.807 8.313-3.181 2.923-5.872 6.379-9.283 10.162l13.549 7.592zm-29.026 20.57c6.04 1.83 8.52 8.303 15.771 4.53 6.412-3.336 5.159-9.118 7.786-13.801-3.617-2.354-6.837-4.706-10.318-6.571-1.152-.617-3.882-.556-4.346.175-3.072 4.848-5.726 9.961-8.893 15.667zm168.43-33.759c2.844 1.699 5.612 3.467 8.489 5.037 2.173 1.186 3.962.979 5.27-1.601 2.325-4.589 4.937-9.033 7.359-13.574.356-.669.746-1.868.428-2.266-2.737-3.41-5.635-6.691-8.971-10.579-4.506 8.236-8.401 15.355-12.575 22.983zm-175.953-24.679l.966.234 16.394-25.948-17.36-7.7v33.414zm107.194 9.087c4.198-6.106 8.07-11.738 12.444-18.102h-34.766c2.327 1.754 4.078 2.499 4.932 3.821 2.876 4.459 5.318 2.984 8.391.158 1.798-1.654 4.362-2.474 6.582-3.669l1.376 1.609-5.399 11.931c2.285 1.51 4.299 2.839 6.44 4.252zm-37.426-14.491c-4.784-.984-9.097-1.997-13.458-2.717-2.419-.399-5.176-.992-7.289-.195-1.357.512-2.947 4.618-2.507 5.022 3.62 3.333 7.645 6.24 11.676 9.094.543.385 2.186.092 2.669-.458 3.104-3.536 6.028-7.23 8.909-10.746zm110.712-2.325c-5.424-5.81-5.421-5.808-9.123.667-.328.573-.778 1.078-1.097 1.656-2.615 4.756-5.542 9.384-7.639 14.36-.753 1.788.506 4.423.847 6.672 1.588-.935 3.771-1.485 4.661-2.869 4.264-6.629 8.178-13.484 12.351-20.486zm-112.663 37.937c-7.195-5.407-7.184-5.399-11.463 1.348-1.24 1.955-2.625 3.819-3.84 5.788-4.49 7.273-3.407 9.573 4.358 10.819 3.717-6.098 7.275-11.936 10.945-17.955zm-75.586 28.686c-4.487.61-4.487.61-12.147 22.197-2.073 5.841-1.684 10.067 1.054 12.957 1.544-2.281 3.097-4.611 4.689-6.914.831-1.201 2.68-2.599 2.451-3.493-2.216-8.649 1.027-16.404 3.953-24.747zm20.271-43.245l13.622-18.128-5.659-7.518c-3.68 6.151-6.945 11.671-10.274 17.153-2.212 3.644-1.66 6.474 2.311 8.493zm64.101 4.331c3.108-4.413 5.719-8.12 8.437-11.978l-8.019-6.623-8.584 12.972 8.166 5.629zm63.338-8.534c-3.109 5.725-6.041 11.121-9.07 16.697l6.654 3.318c2.193-3.817 4.298-7.323 6.248-10.913 2.559-4.71 1.712-6.755-3.832-9.102zm63.905 27.536c2.556-4.691 5.342-8.982 7.281-13.626 1.529-3.664.108-6.421-4.564-6.522-1.886 3.832-3.636 7.725-5.686 11.453-2.022 3.678-1.589 6.437 2.969 8.695zm-9.554-47.963c2.399 3.038 4.381 5.934 6.795 8.408.927.95 3.858 1.636 4.132 1.239 1.277-1.854 3.292-4.966 2.586-6.096-2.35-3.768-5.754-6.878-8.958-10.47l-4.555 6.919zm-74.659 29.262l12.531-17.825-3.997-4.839c-12.158 18.162-12.158 18.162-8.534 22.664zm35.389 4.938c-9.749 5.146-4.364 12.581-3.822 19.206.046.562 2.057.964 2.832 1.302l4.678-17.926-3.688-2.582zm7.007-35.766c-6.776-1.323-11.436.781-13.075 5.789-1.311 4.003-.618 7.416 3.702 9.719 2.89-4.637 5.609-8.989 8.31-13.352.337-.544.572-1.15 1.063-2.156zm78.297 50.46c-6.076 7.025-4.501 14.784 3.693 18.193 3.359-5.125 2.127-11.195-3.693-18.193zm-140.543 4.986h11.499v-13.543l-3.011-1.639-8.488 15.182zm-5.888-29.045c-2.287 3.363-4.763 5.751-5.547 8.604-.509 1.853.874 4.987 2.433 6.472 2.508 2.388 3.593-.648 4.604-2.364 1.334-2.262 2.433-4.663 3.696-7.127l-5.186-5.585zm121.923-29.765l2.69-1.844c-1.333-2.316-2.502-4.748-4.044-6.916-1.605-2.257-3.473-4.356-5.423-6.33-.926-.937-2.31-1.422-3.485-2.113-.459 1.609-1.83 3.964-1.226 4.704 3.576 4.375 7.609 8.374 11.488 12.499zm33.67 112.467l-15.852 22.666c6.321.669 15.239-11.983 15.852-22.666zm-255.083-50.014l1.742 1.285c1.088-.923 2.396-1.682 3.223-2.798 2.447-3.303 4.613-6.814 7.062-10.115 2.169-2.925 1.49-4.695-2.374-6.032-3.225 5.901-6.439 11.78-9.653 17.66zm230.185-92.291l-1.166-.201-9.862 7.611 7.72 7.339c1.305-5.82 2.306-10.284 3.308-14.749zm3.567 103.847l-3.362 6.418 6.517 7.988c3.842-5.437 2.981-9.071-3.155-14.406zm-10.632-19.203c-6.509 7.128-6.608 10.027-.662 13.248 3.84-4.219 5.637-8.587.662-13.248zm-47.368-4.161l-4.009 6.656h15.504l.199-.98-11.694-5.676zm65.689 56.349l-2.089-.206c-1.691 6.275-9.84 9.292-8.972 18.273 4.152-5.279 7.623-9.458 10.766-13.87.694-.974.227-2.776.295-4.197zm-252.647-55.347l2.23 1.33 10.008-16.711-2.209-1.31c-3.343 5.563-6.686 11.127-10.029 16.691zm91.715 7.505h11.713l.835-1.604-7.922-5.665-4.626 7.269zm153.653-8.762l4.904-6.219-7.708-5.091-1.533 1.462c1.284 2.913 2.566 5.826 4.337 9.848zm-8.674 39.344l-.778 12.169c6.703-5.067 6.714-5.727.778-12.169zm22.741 3.933c-1.161 3.168-2.072 5.652-2.983 8.135.881-.018 2.031.317 2.594-.115 2.364-1.815 4.014-3.956.389-8.02z"/><path clip-rule="evenodd" d="M277.241 271.72c-24.848-2.254-49.708-4.384-74.528-6.912-3.169-.323-6.671-2.114-9.083-4.271-7.968-7.123-13.651-16.034-16.231-26.381-1.17-4.691-.328-9.918-.167-14.895.112-3.489.968-6.974.88-10.445-.275-10.861 6.951-17.495 13.323-24.72 10.728-12.163 24.645-15.428 40.186-15.913 16.956-.529 33.865-2.462 50.81-3.52 6.464-.404 12.973-.08 19.462-.083 1.16 0 2.46.37 3.461-.025 10.962-4.33 22.4-1.938 33.621-2.464 4.679-.219 9.39-.178 14.062.126 1.421.093 2.847 1.343 4.113 2.276 1.602 1.18 3.095 2.522 4.536 3.899 1.13 1.08 2.487 2.152 3.082 3.517 1.459 3.345 2.297 6.966 3.806 10.285 10.425 22.931 7.832 44.805-4.493 66.287-3.569 6.22-7.396 10.932-14.689 12.945-7.125 1.967-13.836 5.39-20.858 7.791-3.074 1.051-6.469 1.571-9.727 1.611-13.823.172-27.649.073-41.474.073l-.092.819zm71.632-63.271c-.956-5.528-1.301-11.256-3.03-16.531-1.991-6.072-9.683-8.775-13.636-5.464-11.354 9.515-18.332 21.001-6.397 39.606 4.716 7.353 13.34 7.19 18.504.097 3.953-5.429 4.054-11.397 4.559-17.708zm-143.585 8.494c1.085 5.559 1.829 10.13 2.936 14.612.368 1.492 1.37 3.156 2.588 4.057 8.249 6.097 19.029 2 21.226-7.977 2.11-9.585.342-18.761-2.877-27.835-1.83-5.156-4.352-6.97-10.449-4.978-3.293 1.076-6.913 3.868-8.484 6.879-2.538 4.861-3.504 10.54-4.94 15.242zm71.548 46.793l.303-.762c3.267-.453 6.981-.077 9.701-1.544 4.864-2.623 9.554-5.938 13.414-9.854 1.355-1.374.649-5.6-.336-8.028-.354-.873-4.481-.878-6.545-.215-2.258.726-4.152 2.64-6.148 4.112-6.872 5.069-16.095 4.705-22.416-.859-1.362-1.199-2.757-2.757-4.38-3.156-1.737-.427-3.947-.089-5.619.656-2.459 1.096-3.205 3.445-1.632 5.748 1.928 2.822 3.719 6.419 6.506 7.827 5.37 2.714 11.397 4.124 17.152 6.075zm-6.451-36.338c-.14 3.908 4.009 8.599 7.562 8.551 4.235-.057 6.84-2.954 6.959-7.741.118-4.799-2.135-7.321-6.613-7.403-4.258-.077-7.774 2.855-7.908 6.593zM175.641 174.464c-1.741.952-4 1.504-5.107 2.944-1.886 2.45-4.555 4.952-2.581 8.825.46.904.021 2.665-.6 3.661-10.398 16.691-11.048 34.431-5.887 52.834.133.474.271.947.362 1.429.026.141-.103.31-.767 2.106-2.958-5.951-5.409-10.847-7.831-15.757-3.625-7.351-3.2-14.598.054-22.035 2.324-5.313 3.991-10.914 5.95-16.386.056-.157.052-.385.16-.465 6.857-5.075 6.967-13.366 9.752-20.381.105-.265.484-.421.967-.817l3.988 2.212 1.54 1.83zM202.715 140.124l-13.549-7.591c3.411-3.783 6.102-7.239 9.283-10.162 3.178-2.92 6.847-5.307 10.807-8.313 7.616 4.068 7.726 4.602 1.857 13.163-2.718 3.965-5.253 8.056-8.398 12.903zM173.689 160.694c3.167-5.707 5.82-10.82 8.894-15.667.463-.731 3.193-.792 4.346-.175 3.481 1.865 6.701 4.217 10.318 6.571-2.627 4.683-1.374 10.465-7.786 13.801-7.252 3.773-9.732-2.7-15.772-4.53zM342.119 126.935l12.575-22.982c3.336 3.888 6.233 7.169 8.971 10.579.318.397-.071 1.596-.428 2.266-2.423 4.541-5.034 8.984-7.359 13.574-1.308 2.581-3.097 2.787-5.27 1.601-2.877-1.571-5.645-3.339-8.489-5.038zM166.166 102.256v-33.414l17.36 7.7c-5.648 8.94-11.021 17.444-16.394 25.948l-.966-.234zM273.36 111.343l-6.44-4.251 5.399-11.931-1.376-1.609c-2.22 1.195-4.784 2.015-6.582 3.669-3.072 2.826-5.515 4.301-8.391-.158-.854-1.323-2.604-2.067-4.932-3.821h34.766c-4.373 6.363-8.245 11.995-12.444 18.101zM235.934 96.852c-2.88 3.517-5.804 7.211-8.909 10.746-.483.55-2.126.843-2.669.458-4.031-2.854-8.057-5.761-11.676-9.094-.439-.405 1.15-4.51 2.507-5.022 2.113-.797 4.87-.205 7.289.195 4.36.719 8.673 1.733 13.458 2.717zM346.646 94.527c-4.173 7.002-8.087 13.857-12.351 20.487-.89 1.383-3.073 1.934-4.661 2.869-.341-2.249-1.6-4.884-.847-6.672 2.097-4.977 5.023-9.604 7.639-14.36.318-.578.769-1.083 1.097-1.656 3.702-6.476 3.699-6.478 9.123-.668zM233.983 132.464c-3.669 6.02-7.228 11.857-10.945 17.954-7.766-1.246-8.849-3.545-4.358-10.819 1.216-1.969 2.6-3.833 3.84-5.788 4.279-6.747 4.268-6.754 11.463-1.347zM158.397 161.15c-2.926 8.342-6.169 16.097-3.953 24.748.229.894-1.62 2.292-2.451 3.493-1.592 2.303-3.146 4.633-4.689 6.914-2.738-2.89-3.127-7.116-1.054-12.957 7.66-21.587 7.66-21.587 12.147-22.198zM178.668 117.905c-3.971-2.019-4.523-4.849-2.311-8.493 3.329-5.482 6.594-11.002 10.274-17.153l5.659 7.518-13.622 18.128zM242.769 122.236c-2.597-1.79-5.014-3.456-8.167-5.628l8.584-12.972 8.019 6.623-8.436 11.977zM306.107 113.702c5.544 2.347 6.391 4.392 3.832 9.102-1.95 3.59-4.055 7.096-6.248 10.913l-6.654-3.318c3.029-5.576 5.961-10.972 9.07-16.697zM370.012 141.238c-4.558-2.257-4.991-5.017-2.969-8.695 2.05-3.728 3.8-7.621 5.686-11.453 4.673.101 6.094 2.858 4.564 6.522-1.939 4.644-4.726 8.935-7.281 13.626zM360.458 93.275l4.555-6.919c3.204 3.591 6.608 6.702 8.958 10.47.706 1.13-1.309 4.243-2.586 6.096-.273.396-3.205-.29-4.132-1.239-2.414-2.474-4.396-5.371-6.795-8.408zM285.799 122.537c-3.624-4.502-3.624-4.502 8.534-22.664l3.997 4.839c-4.17 5.933-8.272 11.767-12.531 17.825zM321.188 127.475l3.688 2.582c-1.498 5.742-3.025 11.595-4.678 17.926-.775-.337-2.786-.739-2.832-1.302-.543-6.626-5.928-14.06 3.822-19.206zM328.195 91.709c-.491 1.006-.727 1.612-1.063 2.155-2.7 4.363-5.42 8.715-8.31 13.352-4.32-2.303-5.013-5.715-3.702-9.719 1.64-5.006 6.299-7.111 13.075-5.788zM406.492 142.169c5.819 6.998 7.052 13.068 3.693 18.193-8.194-3.408-9.769-11.168-3.693-18.193zM265.949 147.155l8.488-15.182 3.011 1.639v13.543h-11.499zM260.061 118.11l5.187 5.584c-1.264 2.465-2.362 4.865-3.696 7.127-1.012 1.716-2.097 4.752-4.604 2.364-1.559-1.485-2.941-4.619-2.433-6.472.783-2.852 3.258-5.24 5.546-8.603zM381.984 88.345c-3.879-4.125-7.912-8.124-11.487-12.498-.604-.74.767-3.095 1.226-4.704 1.176.69 2.56 1.176 3.485 2.113 1.95 1.974 3.817 4.072 5.423 6.33 1.542 2.167 2.711 4.6 4.044 6.916l-2.691 1.843zM415.654 200.812c-.613 10.683-9.531 23.334-15.852 22.666 5.224-7.47 10.354-14.803 15.852-22.666zM160.571 150.798l9.652-17.66c3.864 1.336 4.543 3.107 2.374 6.032-2.449 3.301-4.615 6.812-7.062 10.115-.827 1.116-2.135 1.875-3.223 2.798l-1.741-1.285zM390.756 58.507l-3.309 14.75-7.72-7.339 9.862-7.611 1.167.2zM394.323 162.354c6.136 5.335 6.997 8.97 3.154 14.406-2.207-2.706-4.284-5.252-6.517-7.988 1.084-2.066 2.143-4.088 3.363-6.418zM383.691 143.151c4.975 4.661 3.178 9.028-.662 13.248-5.946-3.221-5.846-6.12.662-13.248zM336.323 138.99l11.694 5.676-.199.98h-15.504l4.009-6.656zM402.012 195.339c-.067 1.421.399 3.223-.295 4.198-3.143 4.412-6.613 8.591-10.766 13.87-.868-8.98 7.28-11.998 8.972-18.273l2.089.205zM149.365 139.992c3.343-5.564 6.686-11.127 10.028-16.691l2.209 1.31-10.008 16.711-2.229-1.33zM241.08 147.497l4.626-7.269 7.922 5.665-.835 1.604h-11.713zM394.733 138.735l-4.337-9.848 1.533-1.462 7.708 5.091c-1.598 2.027-2.66 3.375-4.904 6.219zM386.059 178.079c5.937 6.442 5.926 7.102-.778 12.169.285-4.472.505-7.912.778-12.169zM408.8 182.012c3.625 4.064 1.976 6.205-.39 8.02-.562.432-1.713.097-2.594.115.912-2.483 1.823-4.967 2.984-8.135z" fill="none"/><path fill-rule="evenodd" clip-rule="evenodd" d="M348.873 208.449c-.505 6.311-.606 12.279-4.56 17.708-5.164 7.093-13.788 7.256-18.504-.097-11.935-18.605-4.957-30.091 6.397-39.606 3.953-3.312 11.645-.608 13.636 5.464 1.73 5.275 2.075 11.003 3.031 16.531zM205.288 216.943c1.437-4.702 2.403-10.381 4.939-15.241 1.571-3.011 5.191-5.803 8.484-6.879 6.097-1.992 8.619-.178 10.449 4.978 3.219 9.074 4.988 18.25 2.877 27.835-2.197 9.977-12.977 14.074-21.226 7.977-1.219-.901-2.22-2.565-2.588-4.057-1.107-4.483-1.85-9.054-2.935-14.613zM276.836 263.736c-5.755-1.951-11.782-3.361-17.152-6.074-2.787-1.408-4.578-5.005-6.506-7.827-1.573-2.303-.827-4.651 1.632-5.748 1.672-.746 3.882-1.083 5.619-.656 1.623.398 3.018 1.957 4.38 3.156 6.321 5.563 15.544 5.928 22.416.859 1.996-1.473 3.891-3.386 6.148-4.112 2.063-.663 6.191-.657 6.545.215.985 2.429 1.691 6.654.336 8.028-3.86 3.915-8.55 7.23-13.414 9.854-2.72 1.467-6.435 1.091-9.701 1.544l-.303.761zM270.385 227.398c.134-3.739 3.65-6.671 7.908-6.593 4.479.082 6.731 2.604 6.613 7.403-.119 4.787-2.724 7.685-6.959 7.741-3.553.049-7.702-4.643-7.562-8.551z"/></svg>