<svg xmlns="http://www.w3.org/2000/svg" width="512" height="512" viewBox="0 0 512 512"><path d="M193 292v-59c.342-3.79.858-7.573.988-11.37.253-7.393 3.039-13.178 8.693-18.26 6.798-6.111 14.847-8.5 23.318-10.37h47c5.623.342 11.303.305 16.852 1.142 4.672.706 10.475 1.07 13.532 3.961 8.403 7.945 16.321 16.7 16.527 29.559.104 6.45.71 12.892 1.089 19.338v48c-4.217 13.605-12.92 22.271-27.246 24.736-2.58.444-5.169.844-7.754 1.264h-44c-4.464-.316-8.924-.807-13.394-.912-8.089-.191-15.25-2.768-21.894-7.345-7.421-5.113-10.98-12.615-13.711-20.743zm114.888.865l1.948-.203c.375-3.365 1.145-6.742 1.063-10.097-.556-22.803-1.351-45.599-1.935-68.401-.207-8.077-5.525-12.186-11.945-16.632l2.064 8.096-1.149.308-4.431-8.549-.76.261 1.312 6.097-6.646-7.222-.941.936 2.25 6.1-.985.496-5.149-7.302-.972.607 1.491 5.997-6.92-6.745-1.051 1 3.635 10.776c-4.604-3.739-3.438-10.405-10.203-11.831 2.317 6.24 4.227 11.381 6.137 16.522l-.846.354c-2.74-5.615-5.48-11.229-8.221-16.844l-1.439.806c2.267 5.933 4.533 11.867 6.801 17.8-2.634-3.069-4.287-6.5-5.936-9.932-3.758-7.825-3.757-7.826-7.398-8.133l5.482 14.057c-3.943-4.857-5.23-11.335-9.988-15.43l-1.543.869 8.703 19.671-1.107.517c-3.005-5.999-5.933-12.039-9.075-17.966-.698-1.316-2.149-2.233-3.253-3.334l-1.271 1.139 6.652 16.363c-2.568-3.068-4.171-6.502-5.867-9.89-3.566-7.123-3.586-7.113-7.087-6.68l4.725 10.021-.869.476c-2.643-3.75-5.286-7.5-7.929-11.249l-1.07.753 3.999 10.035-.95.4-6.989-10.465-1.251.687.373 3.767c-2.362-1.456-4.486-3.896-6.585-3.874-12.556.128-25.015 10.939-25.549 23.54-.986 23.275-1.244 46.605-.939 69.901.154 11.77 9.732 21.539 20.624 21.988 13.136.542 26.311.154 39.468.134.427-.001.854-.378 1.233-.557v-4.351l5.246 4.921.927-.979-.784-6.104c2.286 3.08 3.682 4.96 5.076 6.84l.949-.517-.938-5.574c3.931.538 1.985 7.729 7.708 6.069l-2.78-6.074 1.364-.793c1.846 2.525 3.692 5.051 6.059 8.286.488-7.058-1.674-9.444-6.989-9.444-17.139-.003-34.286.186-51.413-.305-8.183-.233-12.918-4.491-13.613-12.557-1.342-15.585-1.844-31.246-2.453-46.884-.055-1.41 1.552-4.061 2.551-4.144 6.517-.538 13.167-1.293 19.592 1.56-5.171 8.501-3.465 17.104-2.291 25.603.728 5.266 3.858 9.138 8.233 11.977 14.542 9.434 37.034 2.323 42.334-14.107 1.963-6.086 1.744-13.149 1.232-19.666-.346-4.4.384-5.775 4.675-5.613 5.657.214 11.331.004 16.991.159 6.777.186 7.461.8 7.439 7.594-.042 12.662-.383 25.322-.385 37.982-.001 2.327 1.013 4.655 1.559 6.983zm-85.892-42.827c-9.087 1.16-9.362 1.193-9.375 9.262-.016 9.646.271 19.302.726 28.938.565 11.98 1.615 13.537 13.69 13.469 22.273-.128 44.544-.999 66.807-1.812 5.941-.217 8.876-3.199 9.209-9.083.572-10.122.85-20.27.944-30.409.103-10.974-.05-10.976-11.218-10.573-7.495.271-7.495.271-7.729 7.665-.615 19.44-13.221 31.924-32.61 32.291-17.194.326-30.533-12.846-30.447-30.059.016-3.131.003-6.261.003-9.689zm69.35 60.96l1.375-1.416-5.517-6.619-1.355 1.129c1.471 2.601.56 7.181 5.497 6.906zm-6.55 1.632l1.757-1.242c-1.705-2.609-1.094-7.082-7.268-7.702l5.511 8.944z"/><path clip-rule="evenodd" d="M321 247c-.379-6.446-.985-12.888-1.089-19.338-.206-12.859-8.124-21.614-16.527-29.559-3.058-2.891-8.86-3.255-13.532-3.961-5.549-.837-11.229-.8-16.852-1.142h48v54zM193 292c2.731 8.128 6.29 15.63 13.712 20.743 6.644 4.577 13.804 7.153 21.894 7.345 4.47.105 8.93.596 13.394.912h-49v-29zM226 193c-8.471 1.871-16.52 4.259-23.318 10.37-5.654 5.082-8.44 10.867-8.693 18.26-.13 3.797-.646 7.58-.988 11.37v-40h32.999zM286 321c2.585-.42 5.174-.819 7.754-1.264 14.326-2.465 23.029-11.131 27.246-24.736v26h-35zM307.888 292.865c-.546-2.328-1.56-4.656-1.56-6.984.002-12.66.343-25.32.385-37.982.021-6.794-.662-7.408-7.439-7.594-5.66-.155-11.334.055-16.991-.159-4.291-.163-5.021 1.212-4.675 5.613.512 6.517.73 13.58-1.232 19.666-5.301 16.431-27.792 23.541-42.334 14.107-4.375-2.839-7.505-6.711-8.233-11.977-1.174-8.498-2.88-17.101 2.291-25.603-6.425-2.853-13.075-2.098-19.592-1.56-1 .083-2.606 2.734-2.551 4.144.609 15.638 1.111 31.299 2.453 46.884.695 8.065 5.43 12.323 13.613 12.557 17.127.49 34.274.302 51.413.305 5.315 0 7.478 2.387 6.989 9.444l-6.059-8.286-1.364.793 2.78 6.074c-5.723 1.66-3.777-5.531-7.708-6.069l.938 5.574-.949.517-5.076-6.84c.391 3.036.588 4.57.784 6.104l-.927.979-5.246-4.921v4.351c-.379.179-.806.556-1.233.557-13.158.021-26.332.408-39.468-.134-10.892-.449-20.47-10.219-20.624-21.988-.305-23.296-.046-46.626.939-69.901.534-12.601 12.993-23.412 25.549-23.54 2.1-.021 4.224 2.418 6.585 3.874l-.373-3.767 1.251-.687 6.989 10.465.95-.4-3.999-10.035 1.07-.753c2.643 3.75 5.286 7.5 7.929 11.249l.869-.476c-1.576-3.343-3.151-6.685-4.725-10.021 3.501-.433 3.521-.443 7.087 6.68 1.696 3.388 3.299 6.822 5.867 9.89l-6.652-16.363 1.271-1.139c1.104 1.101 2.556 2.018 3.253 3.334 3.142 5.927 6.07 11.967 9.075 17.966l1.107-.517-8.703-19.671 1.543-.869c4.758 4.094 6.045 10.572 9.988 15.43-1.803-4.621-3.604-9.242-5.482-14.057 3.642.307 3.641.308 7.398 8.133 1.648 3.433 3.302 6.863 5.936 9.932-2.268-5.933-4.534-11.867-6.801-17.8l1.439-.806c2.74 5.615 5.48 11.229 8.221 16.844l.846-.354-6.137-16.522c6.766 1.426 5.6 8.092 10.203 11.831l-3.635-10.776 1.051-1 6.92 6.745-1.491-5.997.972-.607c1.717 2.434 3.434 4.868 5.149 7.302l.985-.496-2.25-6.1.941-.936 6.646 7.222c-.623-2.892-.968-4.494-1.312-6.097l.76-.261 4.431 8.549 1.149-.308-2.064-8.096c6.42 4.447 11.738 8.555 11.945 16.632.584 22.802 1.379 45.599 1.935 68.401.081 3.354-.688 6.731-1.063 10.097l-1.947.204zm-73.26-38.191c-.142 10.328 6.562 18.635 15.719 18 13.66-.948 18.768-6.281 18.819-16.615.069-13.576-5.929-20.737-17.913-20.953-9.89-.179-16.46 7.554-16.625 19.568zm63.62-38.408c-.068-1.311.356-3.691-.443-5.544-.777-1.804-2.625-4.099-4.32-4.401-11.658-2.078-13.633-.281-13.473 11.25l.014.994c.14 7.713.141 7.714 7.7 7.903.497.012.994.009 1.491.006 9.203-.055 9.323-.18 9.031-10.208zm-78.977-12.084c-2.632-1.407-8.327.53-12.672 4.797-4.879 4.792-6.058 9.924-3.324 14.993 1.593-4.001 2.367-8.553 4.914-11.642 2.79-3.385 7.217-5.419 11.082-8.148zm13.008 41.246l13.195-12.854c-7.258-.243-14.268 6.65-13.195 12.854zm48.196-14.513l-5.409-9.226-.779.457v8.769h6.188zM221.996 250.038c0 3.429.013 6.559-.002 9.689-.086 17.213 13.253 30.385 30.447 30.059 19.39-.367 31.995-12.851 32.61-32.291.233-7.395.233-7.395 7.729-7.665 11.168-.402 11.32-.401 11.218 10.573-.095 10.14-.372 20.287-.944 30.409-.333 5.884-3.268 8.866-9.209 9.083-22.263.813-44.534 1.685-66.807 1.812-12.075.068-13.125-1.488-13.69-13.469-.455-9.637-.742-19.293-.726-28.938.012-8.069.287-8.103 9.374-9.262zM291.346 310.998c-4.937.275-4.025-4.305-5.497-6.906l1.355-1.129 5.517 6.619-1.375 1.416zM284.796 312.63l-5.511-8.944c6.174.62 5.562 5.093 7.268 7.702l-1.757 1.242z" fill="none"/><path fill-rule="evenodd" clip-rule="evenodd" d="M234.628 254.674c.165-12.014 6.735-19.747 16.625-19.568 11.984.216 17.982 7.377 17.913 20.953-.052 10.334-5.159 15.667-18.819 16.615-9.156.635-15.86-7.672-15.719-18zm32.522 1.7c-.256-1.802-.404-3.627-.786-5.403-1.462-6.794-3.87-8.372-10.556-7.036-7.42 1.483-14.872 9.198-15.179 16.491-.099 2.339.933 5.594 2.631 6.974 4.724 3.839 10.211 3.149 15.512.721 5.018-2.3 8.765-5.51 8.378-11.747zM298.248 216.266c.292 10.028.172 10.153-9.031 10.208-.497.003-.994.006-1.491-.006-7.56-.189-7.561-.189-7.7-7.903l-.014-.994c-.16-11.531 1.814-13.328 13.473-11.25 1.695.302 3.543 2.597 4.32 4.401.799 1.853.375 4.234.443 5.544zm-2.307-2.849c-10.848-1.131-12.307.515-9.414 9.569h8.891c.178-3.241.344-6.27.523-9.569zM219.271 204.182c-3.864 2.729-8.292 4.764-11.082 8.148-2.547 3.089-3.321 7.641-4.914 11.642-2.734-5.069-1.556-10.202 3.324-14.993 4.345-4.267 10.04-6.205 12.672-4.797zM232.279 245.428c-1.074-6.204 5.937-13.097 13.195-12.854-4.273 4.163-8.689 8.465-13.195 12.854zM280.475 230.915h-6.188v-8.769l.779-.457c1.665 2.842 3.331 5.683 5.409 9.226z"/><path clip-rule="evenodd" d="M267.15 256.374c.387 6.238-3.36 9.448-8.378 11.747-5.3 2.429-10.788 3.118-15.512-.721-1.698-1.38-2.729-4.635-2.631-6.974.307-7.293 7.758-15.007 15.179-16.491 6.686-1.336 9.094.241 10.556 7.036.382 1.775.531 3.6.786 5.403zM295.941 213.417l-.523 9.569h-8.891c-2.892-9.054-1.433-10.701 9.414-9.569z" fill="none"/></svg>