<svg xmlns="http://www.w3.org/2000/svg" width="512" height="512" viewBox="0 0 512 512"><g><path d="M512 364.41v147.59h-512v-414.892c.463 1.416.987 2.815 1.381 4.251 5.102 18.616 16.72 32.075 34.861 37.576 28.046 8.506 54.776 3.94 77.494-15.198 14.059-11.842 21.292-27.743 17.979-46.686-3.868-22.117-24.88-40.711-48.118-43.229-13.909-1.507-27.506.605-40.619 5.087-18.879 6.452-33.546 17.812-40.411 37.452-.885 2.533-1.713 5.084-2.567 7.628v-85.274h512v316.499c-.832-8.255-1.572-16.521-2.514-24.764-3.392-29.682-11.327-57.745-28.827-82.523-10.861-15.379-24.86-26.876-42.346-33.392-35.46-13.214-70.927-11.099-105.747 2.549-10.311 4.042-19.831 10.114-29.691 15.3-5.942 3.127-5.914 3.16-9.358-2.422-.425-.689-.891-1.437-1.524-1.9-6.833-4.991-13.731-9.949-22.37-11.262-25.84-3.927-51.624-2.958-77.253 1.683-4.517.818-9.136 2.96-12.914 5.624-9.756 6.881-13.044 17.574-13.131 28.69-.109 14.016 1.039 28.074 2.235 42.062 2.59 30.292 1.706 60.611.912 90.909-.443 16.909-2.607 33.769-3.331 50.678-.677 15.832-.621 31.697 4.514 47.048 2.749 8.218 7.646 14.653 14.767 19.496 16.307 11.088 34.477 15.356 53.905 14.276 27.858-1.548 46.513-17.355 53.765-44.38 4.312-16.064 4.505-32.374 4.26-48.776-.418-27.855-1.508-55.724-1.027-83.563.309-17.825 4.251-35.046 19.733-46.9l.4.013.4-.008c2.416-.87 4.772-2.009 7.258-2.562 10.245-2.281 19.603.937 28.854 4.876 13.222 5.629 23.977 13.774 27.592 28.507 1.846 7.52 3.711 15.294 3.732 22.959.074 25.932-.47 51.872-1.176 77.8-.459 16.821-.971 33.618 2.968 50.12 4.668 19.551 16.007 33.306 35.793 38.708 17.701 4.833 35.324 4.342 52.396-3.007 17.309-7.45 29.139-20.106 33.495-38.575 1.946-8.25 1.904-17.011 2.377-25.562.784-14.16 1.252-28.337 1.853-42.506zm-377.766-40.173l-1.036-.004c.623-13.513 1.463-27.019 1.817-40.538.546-20.876 1.736-41.815-3.546-62.375-3.501-13.625-8.807-26.338-20.553-34.88-15.616-11.358-33.147-14.39-52.003-10.621-24.579 4.914-41.056 19.213-47.875 43.307-3.164 11.18-5.071 23.025-5.41 34.63-.54 18.536 1.098 37.125 1.094 55.691-.004 21.976-.729 43.952-1.224 65.926-.517 22.856-.646 45.657 7.411 67.562 6.009 16.341 16.848 27.572 34.067 31.67 17.093 4.065 33.945 2.308 50.169-3.947 13.595-5.243 22.963-15.383 28.734-28.669 6.306-14.517 8.23-29.954 8.319-45.628.136-24.039.036-48.082.036-72.124z" fill="none"/><path fill-rule="evenodd" clip-rule="evenodd" d="M316.058 253.645c-15.482 11.854-19.425 29.075-19.733 46.9-.48 27.84.609 55.708 1.027 83.563.245 16.402.052 32.712-4.26 48.776-7.252 27.024-25.907 42.832-53.765 44.38-19.428 1.08-37.598-3.188-53.905-14.276-7.121-4.843-12.018-11.278-14.767-19.496-5.135-15.351-5.191-31.216-4.514-47.048.723-16.909 2.888-33.769 3.331-50.678.794-30.298 1.678-60.617-.912-90.909-1.196-13.988-2.344-28.045-2.235-42.062.087-11.117 3.375-21.81 13.131-28.69 3.777-2.664 8.396-4.805 12.914-5.624 25.629-4.641 51.414-5.61 77.253-1.683 8.639 1.313 15.537 6.271 22.37 11.262.634.463 1.1 1.211 1.524 1.9 3.444 5.582 3.416 5.549 9.358 2.422 9.86-5.186 19.381-11.258 29.691-15.3 34.82-13.647 70.287-15.763 105.747-2.549 17.485 6.516 31.484 18.013 42.346 33.392 17.5 24.778 25.436 52.842 28.827 82.523.941 8.243 1.682 16.509 2.514 24.764v49.197c-.601 14.169-1.069 28.346-1.853 42.505-.473 8.551-.431 17.312-2.377 25.562-4.356 18.469-16.187 31.125-33.495 38.575-17.072 7.349-34.695 7.84-52.396 3.007-19.786-5.402-31.125-19.157-35.793-38.708-3.938-16.502-3.427-33.299-2.968-50.12.706-25.928 1.25-51.868 1.176-77.8-.021-7.665-1.887-15.439-3.732-22.959-3.615-14.733-14.37-22.878-27.592-28.507-9.251-3.939-18.608-7.158-28.854-4.876-2.485.553-4.842 1.692-7.257 2.562.989-.874 1.839-2.166 2.992-2.557 8.22-2.794 16.345-6.728 24.804-7.734 10.282-1.22 20.865.041 31.313.365.705.022 1.322 1.272 2.07 1.833 3.742 2.812 7.306 5.957 11.346 8.253 3.157 1.794 5.369-1.397 7.917-2.837 1.566-.884 3.7-.762 5.578-1.091-.526 1.731-.852 3.559-1.622 5.174-1.441 3.021-3.613 5.782-4.534 8.93-.471 1.611.575 4.546 1.921 5.538 1.095.807 3.999.146 5.498-.811 2.957-1.889 5.589-4.333 8.181-6.737 2.413-2.238 3.821-1.607 5.319 1.044 3.104 5.499 2.739 9.934-1.479 14.944-2.713 3.222-5.883 6.201-7.942 9.808-6.251 10.956-3.07 22.604-1.534 34.013.285 2.117 2.578 3.3 4.831 1.691 1.871-1.335 3.597-2.896 5.267-4.482 3.687-3.502 7.299-7.084 11.31-10.991 1.41 4.571.011 7.599-2.285 10.225-3.314 3.793-6.735 7.505-10.281 11.082-4.675 4.714-7.92 10.355-8.731 16.787-.885 7.007-.796 14.178-.62 21.264.125 5.035 2.94 6.142 6.999 2.969 2.998-2.342 5.539-5.279 8.577-7.561 1.689-1.267 3.978-1.732 5.997-2.559-.099 2.3.644 5.168-.451 6.795-3.464 5.148-7.366 10.062-11.564 14.638-5.083 5.539-9.371 11.388-10.348 19.032-.182 1.414.367 3.673 1.349 4.271.949.577 2.993-.264 4.368-.895 1.19-.546 2.17-1.615 3.151-2.551 3.059-2.918 5.994-5.972 9.144-8.785 1.281-1.146 2.989-1.814 4.502-2.697l1.254 1.222c-1.422 2.474-2.507 5.234-4.327 7.367-5.474 6.419-11.298 12.537-16.831 18.908-1.187 1.365-2.195 3.24-2.417 4.99-.199 1.566.801 3.285 1.271 4.937 1.459-.565 3.206-.797 4.325-1.76 4.131-3.549 7.99-7.412 12.089-10.998 1.291-1.131 3.014-1.764 4.539-2.625l.912.87c-.408 1.489-.47 3.217-1.293 4.424-2.364 3.469-4.886 6.857-7.629 10.032-3.138 3.633-6.497 7.036-6.805 12.229-.203 3.441.148 6.604 3.642 8.411 3.365 1.741 6.306.708 9.108-1.389 1.302-.973 2.574-2.079 4.035-2.725 3.871-1.707 6.777.48 5.85 4.59-.487 2.16-1.895 4.164-3.104 6.099-2.688 4.297-1.608 7.848 3.314 9.022 2.234.532 5.179.638 7.054-.408 4.131-2.304 7.915-1.857 12.167-.727 7.642 2.033 14.973.786 20.198-5.388 3.891-4.597 7.878-9.833 9.507-15.459 2.316-7.999 3.369-16.606 3.459-24.971.363-33.883.5-67.775-.003-101.653-.233-15.79-1.397-31.649-3.437-47.307-2.412-18.529-10.459-34.821-22.75-49.034-10.108-11.687-21.852-21.239-35.286-28.732-16.42-9.157-33.918-14.856-52.798-15.487-3.528-.118-7.104 1.218-10.659 1.883-.904.169-1.812.508-2.708.482-3.24-.094-6.584-.922-9.691-.366-8.954 1.602-16.397 6.375-23.139 12.335-2.416 2.138-4.904 4.193-8.164 6.971l.624-4.872c-9.782 6.979-17.038 15.275-22.716 24.805-4.576 7.679-11.586 9.272-19.455 9.528-2.56.083-3.959-1.263-4.057-4.026-.154-4.367-.483-8.73-.813-13.089-.592-7.823-2.817-15.019-10.327-18.739-4.811-2.384-10.102-4.696-15.336-5.135-11.098-.931-22.343-1.314-33.446-.616-11.219.706-19.62 6.662-22.585 18.099-1.353 5.214-1.665 10.768-1.837 16.187-.062 1.955 1.242 5.097 2.69 5.64 1.512.566 4.291-.927 5.908-2.261 3.353-2.765 6.183-6.159 9.465-9.019 1.736-1.514 3.972-2.451 5.982-3.648l1.114 1.288c-1.064 1.966-1.813 4.21-3.253 5.842-3.781 4.285-7.716 8.457-11.857 12.391-7.703 7.319-10.641 17.286-7.254 26.684 1.293-.854 2.591-1.534 3.679-2.462 3.314-2.829 6.383-5.975 9.875-8.551 1.908-1.408 4.476-1.914 6.746-2.826.525 2.486 1.826 5.104 1.427 7.431-1.115 6.507-4.952 11.526-9.571 16.24-4.125 4.21-8.401 8.818-10.78 14.082-4.218 9.336-2.574 19.595-1.843 29.493.296 4.01 2.443 4.573 5.979 2.363.522-.327 1.057-.634 1.586-.95-11.402 12.716-7.482 27.905-8.073 43.584 2.147-1.485 3.279-2.149 4.274-2.978 4.71-3.921 9.323-7.963 14.117-11.776 1.021-.812 2.654-.854 4.005-1.252-.076 1.509.407 3.414-.327 4.456-3.042 4.32-6.191 8.626-9.793 12.476-4.486 4.795-9.162 9.318-11.392 15.748-4.146 11.959-2.69 24.302-2.402 36.521.102 4.312 3.462 5.428 6.899 2.577 3.241-2.687 6.144-5.783 9.18-8.715 2.265-2.187 4.507-4.396 6.758-6.596l1.102.553c.214 2.527.476 5.052.632 7.582.706 11.413-1.934 21.552-10.369 29.916-2.3 2.279-3.779 5.692-4.846 8.854-1.853 5.484.88 11.814 6.147 15.719 4.485 3.324 8.939 3.262 14.393-.201 4.03-2.56 7.373-2.33 11.553 1.068 3.15 2.562 6.13 5.328 2.697 9.854 15.782 1.854 29.601-5.771 35.002-19.86 3.481-9.079 4.866-18.446 4.882-28.07.058-34.704.027-69.41.127-104.115.012-3.94.306-7.94 1.037-11.805 3.011-15.902 11.951-28.298 24.02-38.433 5.127-4.307 11.24-7.437 16.905-11.102zM0 83.989c.854-2.543 1.682-5.095 2.567-7.627 6.865-19.641 21.532-31 40.411-37.452 13.113-4.482 26.71-6.594 40.619-5.087 23.238 2.517 44.25 21.111 48.118 43.229 3.314 18.943-3.92 34.844-17.979 46.686-22.718 19.138-49.448 23.704-77.494 15.198-18.141-5.501-29.759-18.959-34.861-37.576-.394-1.437-.918-2.836-1.381-4.252v-13.119zm30.646-9.546c-.425.503-.979 1.061-1.42 1.697-3.794 5.472-6.876 11.212-5.674 18.208.78 4.534 4.161 6.146 8.108 3.923 1.519-.855 2.864-2.045 4.213-3.171 1.459-1.216 2.694-2.763 4.286-3.74 1.28-.785 3.455-1.729 4.318-1.173 1.177.756 2.327 3.083 2.007 4.365-.998 3.995-2.483 7.911-4.205 11.662-.88 1.916-2.717 3.376-4.034 5.109-2.49 3.279-3.024 7.987-1.24 10.288 2.08 2.684 6.376 3.314 10.503 1.23 2.656-1.341 5.038-3.222 7.681-4.595 1.14-.593 3.006-1.157 3.893-.633 4.65 2.753 4.817 4.306 1.55 8.679-.489.655-.956 1.328-1.41 2.009-2.297 3.448-1.852 4.518 2.164 4.874 2.982.264 5.978.391 8.969.524 15.724.699 30.496-9.268 35.762-24.108 6.755-19.039 1.165-42.541-14.052-55.854-12.445-10.888-22.772-13.794-34.808-4.931-.108.08-.415-.111-.215-.05 0-1.554.547-3.609-.137-4.181-.875-.729-2.867-.656-4.166-.249-12.793 4.019-21.382 12.585-26.183 25.015-.545 1.412-.824 3.385-.226 4.606.337.684 2.726.356 4.316.496z"/><path clip-rule="evenodd" d="M316.058 253.645c-5.665 3.665-11.777 6.796-16.907 11.103-12.068 10.135-21.009 22.53-24.02 38.433-.731 3.864-1.025 7.864-1.037 11.805-.1 34.705-.069 69.411-.127 104.115-.016 9.624-1.4 18.991-4.882 28.07-5.401 14.089-19.221 21.715-35.002 19.86 3.433-4.525.454-7.292-2.697-9.854-4.18-3.398-7.523-3.628-11.553-1.068-5.454 3.463-9.907 3.525-14.393.201-5.268-3.904-8-10.234-6.147-15.719 1.067-3.161 2.546-6.574 4.846-8.854 8.435-8.364 11.075-18.503 10.369-29.916-.157-2.53-.418-5.055-.632-7.582l-1.102-.553c-2.251 2.199-4.493 4.409-6.758 6.596-3.036 2.932-5.939 6.028-9.18 8.715-3.438 2.851-6.798 1.734-6.899-2.577-.289-12.22-1.745-24.562 2.402-36.521 2.229-6.43 6.905-10.953 11.392-15.748 3.602-3.85 6.751-8.155 9.793-12.476.733-1.042.25-2.947.327-4.456-1.351.397-2.983.439-4.005 1.252-4.794 3.813-9.407 7.855-14.117 11.776-.995.828-2.127 1.492-4.274 2.978.59-15.679-3.329-30.868 8.073-43.584-.529.316-1.064.623-1.586.95-3.536 2.21-5.684 1.646-5.979-2.363-.731-9.898-2.375-20.157 1.843-29.493 2.378-5.264 6.655-9.872 10.78-14.082 4.619-4.714 8.457-9.733 9.571-16.24.398-2.326-.902-4.945-1.427-7.431-2.27.913-4.838 1.418-6.746 2.826-3.492 2.576-6.562 5.722-9.875 8.551-1.087.928-2.386 1.608-3.679 2.462-3.387-9.398-.449-19.365 7.254-26.684 4.141-3.935 8.076-8.106 11.857-12.391 1.44-1.632 2.189-3.876 3.253-5.842l-1.114-1.288c-2.011 1.197-4.246 2.135-5.982 3.648-3.283 2.86-6.113 6.254-9.465 9.019-1.617 1.333-4.396 2.827-5.908 2.261-1.448-.543-2.751-3.685-2.69-5.64.173-5.418.485-10.972 1.837-16.187 2.966-11.438 11.366-17.394 22.585-18.099 11.103-.699 22.349-.315 33.446.616 5.234.439 10.525 2.75 15.336 5.135 7.51 3.72 9.735 10.917 10.327 18.739.33 4.359.659 8.722.813 13.089.098 2.763 1.497 4.109 4.057 4.026 7.869-.255 14.879-1.849 19.455-9.528 5.678-9.529 12.934-17.826 22.716-24.805l-.624 4.872c3.26-2.778 5.748-4.833 8.164-6.971 6.741-5.96 14.185-10.733 23.139-12.335 3.107-.556 6.451.272 9.691.366.896.026 1.804-.313 2.708-.482 3.555-.665 7.131-2 10.659-1.883 18.88.631 36.378 6.33 52.798 15.487 13.435 7.493 25.178 17.045 35.286 28.732 12.291 14.213 20.338 30.505 22.75 49.034 2.039 15.657 3.203 31.517 3.437 47.307.503 33.878.366 67.771.003 101.653-.09 8.364-1.143 16.972-3.459 24.971-1.629 5.626-5.616 10.862-9.507 15.459-5.226 6.174-12.557 7.421-20.198 5.388-4.252-1.131-8.036-1.577-12.167.727-1.875 1.046-4.819.94-7.054.408-4.923-1.175-6.003-4.726-3.314-9.022 1.21-1.935 2.617-3.938 3.104-6.099.928-4.109-1.979-6.297-5.85-4.59-1.461.646-2.733 1.752-4.035 2.725-2.803 2.097-5.743 3.13-9.108 1.389-3.493-1.807-3.845-4.97-3.642-8.411.308-5.193 3.667-8.597 6.805-12.229 2.743-3.175 5.265-6.563 7.629-10.032.823-1.207.885-2.935 1.293-4.424l-.912-.87c-1.525.861-3.248 1.494-4.539 2.625-4.099 3.586-7.958 7.449-12.089 10.998-1.119.963-2.866 1.194-4.325 1.76-.47-1.651-1.47-3.37-1.271-4.937.222-1.75 1.23-3.625 2.417-4.99 5.533-6.371 11.357-12.489 16.831-18.908 1.82-2.133 2.905-4.894 4.327-7.367l-1.254-1.222c-1.513.883-3.221 1.552-4.502 2.697-3.149 2.813-6.085 5.867-9.144 8.785-.981.936-1.961 2.005-3.151 2.551-1.375.631-3.419 1.472-4.368.895-.981-.598-1.53-2.856-1.349-4.271.977-7.645 5.265-13.493 10.348-19.032 4.198-4.575 8.101-9.489 11.564-14.638 1.095-1.627.353-4.495.451-6.795-2.02.826-4.308 1.292-5.997 2.559-3.038 2.281-5.579 5.219-8.577 7.561-4.059 3.173-6.874 2.066-6.999-2.969-.176-7.086-.265-14.257.62-21.264.812-6.432 4.057-12.073 8.731-16.787 3.546-3.577 6.967-7.289 10.281-11.082 2.296-2.626 3.695-5.653 2.285-10.225-4.011 3.907-7.623 7.489-11.31 10.991-1.67 1.586-3.396 3.147-5.267 4.482-2.253 1.608-4.546.426-4.831-1.691-1.536-11.408-4.717-23.057 1.534-34.013 2.06-3.606 5.229-6.586 7.942-9.808 4.219-5.011 4.584-9.445 1.479-14.944-1.498-2.651-2.906-3.282-5.319-1.044-2.592 2.404-5.224 4.849-8.181 6.737-1.499.957-4.403 1.617-5.498.811-1.346-.992-2.392-3.927-1.921-5.538.921-3.147 3.093-5.908 4.534-8.93.771-1.616 1.096-3.443 1.622-5.174-1.878.329-4.012.207-5.578 1.091-2.548 1.44-4.76 4.631-7.917 2.837-4.04-2.296-7.604-5.441-11.346-8.253-.748-.561-1.365-1.811-2.07-1.833-10.448-.325-21.031-1.585-31.313-.365-8.459 1.006-16.584 4.94-24.804 7.734-1.153.391-2.003 1.683-2.992 2.557l-.401.008-.398-.014zm-113.92 53.214l.909.861 9.101-10.254c-3.839 3.603-6.925 6.499-10.01 9.393z" fill="none"/><path fill-rule="evenodd" clip-rule="evenodd" d="M134.234 324.237c0 24.042.1 48.085-.036 72.125-.089 15.674-2.014 31.111-8.319 45.628-5.771 13.286-15.139 23.426-28.734 28.669-16.224 6.255-33.076 8.013-50.169 3.947-17.219-4.098-28.059-15.329-34.067-31.67-8.056-21.905-7.927-44.706-7.411-67.562.495-21.974 1.22-43.95 1.224-65.926.004-18.566-1.633-37.155-1.094-55.691.338-11.605 2.246-23.451 5.41-34.63 6.819-24.094 23.296-38.393 47.875-43.307 18.855-3.769 36.387-.737 52.003 10.621 11.746 8.542 17.052 21.255 20.553 34.88 5.282 20.56 4.092 41.499 3.546 62.375-.354 13.52-1.194 27.025-1.817 40.538l1.036.003zm-100.351-19.295c-5.363 5.816-6.939 13.392-5.878 21.494.299 2.284 1.696 5.002 3.476 6.266.867.616 4.029-1.34 5.705-2.689 3.175-2.557 5.908-5.665 9.083-8.223 1.068-.86 3.378-1.461 4.284-.876.919.591 1.25 2.853 1.066 4.282-.823 6.356-4.229 11.435-8.639 15.849-5.417 5.424-10.888 10.799-12.784 18.601-.705 2.897-1.414 5.878-1.472 8.832-.184 9.425-.229 18.861.064 28.281.068 2.187 1.688 4.326 2.593 6.486 2.019-.857 4.27-1.394 6.005-2.646 2.746-1.983 4.994-4.666 7.758-6.617 1.366-.965 4.319-1.848 4.956-1.196 1.162 1.188 1.724 3.62 1.497 5.4-.791 6.205-4.139 11.106-8.584 15.4-3.024 2.921-6.109 5.883-8.565 9.265-3.179 4.379-3.264 9.906-.867 12.189 2.721 2.593 6.654 1.915 11.783-2.001 1.299-.993 2.589-2.017 3.984-2.855.815-.49 1.831-.644 2.756-.948l.985 1.015c-1.849 2.701-3.631 5.45-5.56 8.091-4.568 6.256-4.072 11.932 1.867 16.849 3.034 2.513 6.156 5.199 9.7 6.735 3.975 1.723 9 3.991 12.629 2.897 6.86-2.07 12.455.527 18.694 1.53l-.898 2.337c7.253-1.695 12.442-5.61 15.218-11.925 2.168-4.931 3.949-10.207 4.813-15.507 3.438-21.1 3.917-42.415 3.743-63.747-.359-43.718-.695-87.435-1.19-131.15-.07-6.262-.595-12.572-1.551-18.76-3.794-24.541-16.804-38.924-39.345-43.152-12.842-2.41-24.038.298-31.773 12.153-5.404 8.284-8.184 17.489-10.312 26.954-.363 1.62.496 3.516.79 5.284 1.7-.594 3.759-.768 5.03-1.862 3.502-3.017 6.592-6.508 10.01-9.633 1.916-1.751 4.157-3.145 6.798-5.105 1.361 12.154.085 22.34-8.462 30.751-5.029 4.949-9.942 10.202-13.871 16.021-2.381 3.526-3.003 8.349-3.931 12.692-.259 1.212.871 3.318 1.987 4.032.806.517 2.825-.311 3.982-1.045 1.584-1.006 2.918-2.438 4.267-3.781 3.474-3.456 6.782-7.09 10.415-10.366 1.014-.915 3.285-1.535 4.313-1.002.914.474 1.572 2.954 1.178 4.168-1.249 3.837-2.426 7.957-4.771 11.115-3.467 4.67-8.07 8.473-11.889 12.904-2.643 3.066-5.233 6.353-6.975 9.963-1.054 2.184-.441 5.176-.578 7.804 2.238-.191 4.476-.383 6.466-.554z"/><path clip-rule="evenodd" d="M30.646 74.443c-1.59-.14-3.979.188-4.315-.496-.598-1.221-.32-3.194.226-4.606 4.801-12.43 13.389-20.996 26.183-25.015 1.298-.408 3.291-.481 4.166.249.685.571.137 2.627.137 4.181-.2-.061.106.13.215.05 12.036-8.862 22.363-5.957 34.808 4.932 15.217 13.313 20.808 36.815 14.052 55.854-5.266 14.841-20.038 24.808-35.762 24.108-2.991-.133-5.987-.26-8.969-.524-4.015-.356-4.46-1.426-2.164-4.874.454-.681.921-1.354 1.41-2.009 3.267-4.374 3.101-5.926-1.55-8.679-.887-.524-2.753.04-3.893.633-2.643 1.373-5.025 3.254-7.681 4.595-4.127 2.083-8.424 1.454-10.503-1.23-1.784-2.301-1.25-7.009 1.24-10.288 1.317-1.733 3.154-3.193 4.034-5.109 1.722-3.75 3.208-7.667 4.205-11.662.32-1.282-.83-3.609-2.007-4.365-.863-.556-3.038.389-4.318 1.173-1.592.977-2.827 2.523-4.286 3.74-1.35 1.126-2.695 2.315-4.213 3.171-3.947 2.223-7.328.611-8.108-3.923-1.203-6.996 1.879-12.736 5.674-18.208.44-.638.994-1.195 1.419-1.698z" fill="none"/><path fill-rule="evenodd" clip-rule="evenodd" d="M202.138 306.859c3.085-2.895 6.171-5.79 10.009-9.393-3.49 3.933-6.296 7.094-9.101 10.254l-.908-.861z"/><path clip-rule="evenodd" d="M33.883 304.942l-6.465.554c.136-2.628-.476-5.62.578-7.804 1.742-3.61 4.332-6.896 6.975-9.963 3.819-4.432 8.422-8.234 11.889-12.904 2.345-3.158 3.523-7.278 4.771-11.115.394-1.214-.264-3.694-1.178-4.168-1.028-.533-3.299.087-4.313 1.002-3.632 3.276-6.941 6.91-10.415 10.366-1.349 1.343-2.683 2.775-4.267 3.781-1.158.734-3.176 1.562-3.982 1.045-1.117-.714-2.247-2.82-1.987-4.032.928-4.344 1.55-9.166 3.931-12.692 3.929-5.819 8.841-11.072 13.871-16.021 8.547-8.411 9.823-18.597 8.462-30.751-2.641 1.96-4.882 3.354-6.798 5.105-3.417 3.125-6.508 6.616-10.01 9.633-1.271 1.094-3.331 1.268-5.03 1.862-.294-1.768-1.153-3.665-.79-5.284 2.128-9.465 4.908-18.67 10.312-26.954 7.735-11.855 18.931-14.563 31.773-12.153 22.542 4.228 35.551 18.611 39.345 43.152.956 6.188 1.48 12.498 1.551 18.76.495 43.716.832 87.433 1.19 131.15.175 21.332-.305 42.647-3.743 63.747-.864 5.3-2.646 10.576-4.813 15.507-2.776 6.314-7.965 10.229-15.218 11.925l.898-2.337c-6.239-1.003-11.834-3.601-18.694-1.53-3.629 1.094-8.654-1.175-12.629-2.897-3.544-1.536-6.666-4.223-9.7-6.735-5.939-4.917-6.436-10.593-1.867-16.849 1.929-2.641 3.711-5.39 5.56-8.091l-.985-1.015c-.926.305-1.941.458-2.756.948-1.395.839-2.685 1.862-3.984 2.855-5.129 3.916-9.062 4.594-11.783 2.001-2.396-2.283-2.312-7.811.867-12.189 2.457-3.382 5.541-6.344 8.565-9.265 4.445-4.294 7.793-9.195 8.584-15.4.227-1.78-.335-4.213-1.497-5.4-.637-.651-3.59.231-4.956 1.196-2.764 1.951-5.012 4.634-7.758 6.617-1.735 1.253-3.986 1.789-6.005 2.646-.906-2.16-2.525-4.3-2.593-6.486-.293-9.42-.249-18.856-.064-28.281.058-2.954.767-5.935 1.472-8.832 1.896-7.802 7.367-13.177 12.784-18.601 4.409-4.414 7.815-9.492 8.639-15.849.185-1.43-.147-3.691-1.066-4.282-.906-.585-3.216.016-4.284.876-3.175 2.558-5.908 5.666-9.083 8.223-1.676 1.35-4.838 3.306-5.705 2.689-1.78-1.264-3.177-3.981-3.476-6.266-1.063-8.102.514-15.677 5.877-21.494z" fill="none"/></g></svg>