<svg xmlns="http://www.w3.org/2000/svg" width="512" height="512" viewBox="0 0 512 512"><path d="M193.026 321.984v-128.896h128.807v128.896h-128.807zm42.084-23.397c1.732.531 3.488.992 5.191 1.604 11.285 4.055 22.539 4.68 33.879.105 7.95-3.207 13.828-8.916 19.224-15.283l-3.027 7.487c15.676-11.703 13.293-28.909 13.558-45.211.039-2.396-1.985-4.826-3.056-7.239l-1.223.421c3.318 14.942 4.125 29.592-4.767 43.115.867-2.495 1.79-4.973 2.59-7.489 3.827-12.034 4.195-24.16.034-36.125-1.294-3.719-3.941-6.968-6.313-11.021l5.458 2.596 1.046-1.75c-8.07-5.253-15.769-11.25-24.323-15.537-7.551-3.786-16.078-3.14-24.439-1.247-22.316 5.052-38.02 25.331-36.809 47.518.668 12.238 6.506 22.048 13.638 31.383-9.44-6.069-13.361-15.614-15.866-26.049-.294 16.895 13.719 33.603 29.1 35.501l-3.895-2.779z" fill="none"/><path fill-rule="evenodd" clip-rule="evenodd" d="M225.77 291.913c-7.131-9.335-12.969-19.145-13.638-31.383-1.211-22.188 14.492-42.466 36.809-47.518 8.361-1.894 16.888-2.539 24.439 1.247 8.555 4.288 16.253 10.284 24.323 15.537l-1.046 1.75-5.458-2.596c2.372 4.053 5.02 7.301 6.313 11.021 4.161 11.964 3.793 24.09-.034 36.125-.8 2.517-1.723 4.994-2.576 7.476l-1.499 1.441c-5.396 6.367-11.273 12.076-19.224 15.283-11.34 4.574-22.594 3.949-33.879-.105-1.703-.611-3.459-1.072-5.191-1.604l-9.339-6.674zm58.469-50.111c-2.934-.623-6.256-.851-9.185-2.044-7.283-2.969-12.826-.683-15.215 6.79-.537 1.685-.918 3.419-1.507 5.644-9.221-.904-17.366-3.765-24.047-10.708-1.946 7.293 2.868 11.105 7.635 15.957l-7.246-.984-.803 1.083 7.834 7.998-2.674 3.347 11.064 5.518-14.252 6.833c9.144 3.3 17.384 3.045 25.721.443-8.926 6.034-18.375 3.422-28.934 1.223 8.024 4.228 17.871 4.643 25.195 2.572 10.561-2.984 14.15-12.481 19.721-20.13 1.216-1.667 1.639-3.95 2.27-5.997 1.575-5.115 3.061-10.256 4.544-15.26l-1.881.146 1.76-2.431zM293.403 285.013l1.499-1.441c8.878-13.509 8.071-28.159 4.753-43.101l1.223-.421c1.07 2.414 3.095 4.844 3.056 7.239-.265 16.302 2.118 33.508-13.558 45.211l3.027-7.487zM225.77 291.913l9.34 6.674 3.894 2.778c-15.381-1.898-29.395-18.606-29.1-35.501 2.505 10.435 6.426 19.98 15.866 26.049z"/><path clip-rule="evenodd" d="M284.239 241.802l-1.76 2.431 1.881-.146c-1.483 5.004-2.969 10.145-4.544 15.26-.631 2.047-1.054 4.33-2.27 5.997-5.57 7.648-9.16 17.146-19.721 20.13-7.324 2.07-17.171 1.655-25.195-2.572 10.559 2.199 20.008 4.812 28.934-1.223-8.337 2.602-16.577 2.856-25.721-.443l14.252-6.833-11.064-5.518 2.674-3.347-7.834-7.998.803-1.083 7.246.984c-4.768-4.851-9.582-8.664-7.635-15.957 6.682 6.943 14.827 9.804 24.047 10.708.589-2.225.97-3.959 1.507-5.644 2.389-7.473 7.932-9.759 15.215-6.79 2.929 1.194 6.252 1.421 9.185 2.044z" fill="none"/></svg>