<svg xmlns="http://www.w3.org/2000/svg" width="512" height="512" viewBox="0 0 512 512"><path d="M-93.389 350.121c85.333-147.802 170.667-295.604 256-443.405 147.802 85.333 295.603 170.667 443.404 256-85.332 147.802-170.665 295.602-255.998 443.404l-443.406-255.999zm254.723-77.258c-.428-1.529-.453-1.626.384-3.014 4.896-8.111 9.77-16.236 14.74-24.301 1.697-2.754 3.288-5.69 5.916-7.592.254-.184.44-.53.679-.767 1.232-1.223 1.68-2.741 1.767-4.248.167-2.889-1.785-4.139-4.442-3.264-1.165.384-2.021 1.316-2.783 2.459-2.123 3.182-4.308 6.321-6.398 9.526-4.029 6.178-8.078 12.343-11.991 18.597-4.396 7.025-8.602 14.175-12.986 21.207-2.172 3.484-4.541 6.849-7.398 9.719-.743.747-1.524 1.849-2.484 1.534-.98-.32-.677-1.637-.646-2.606.163-5.087 1.135-10.192 3.442-15.229 1.327-2.896 2.696-5.8 4.261-8.583 4.308-7.657 8.875-15.149 14.166-22.133.709-.937 1.405-1.896 2.035-2.893.277-.438.502-1.022.532-1.497.149-2.378-.176-4.311-2.355-4.948-1.554-.455-1.74-.591-2.938 1.033-1.893 2.566-3.754 5.16-5.655 7.717-1.653 2.224-3.183 4.636-5.059 6.558-2.205 2.26-4.182 4.709-6.134 7.205-3.413 4.36-6.864 8.681-10.739 12.502-2.021 1.993-4.165 3.812-6.284 5.652-.7.607-1.496 1.094-2.331.731-.203-1.34.071-2.772.466-4.216 1.249-4.563 3.108-8.955 5.414-13.2 3.935-7.245 8.495-14.082 13.224-20.773 5.492-7.77 11.268-15.289 17.509-22.343.772-.873 1.537-1.766 2.243-2.706 2.292-3.054 2.297-6.699.044-8.507-.819-.658-1.607-.614-2.619.298-1.043.939-2.117 1.879-3.032 2.976-2.292 2.748-4.492 5.597-6.748 8.384-8.225 10.161-15.94 20.748-22.708 32.09-3.978 6.666-7.474 13.516-9.139 21.005-1.123 5.046-1.379 9.747-.144 14.173.987 3.536 4.584 4.648 7.795 2.173 2.665-2.053 5.277-4.224 7.907-6.351.598-.483 1.177-1.006 1.956-1.674-.01.742.018 1.168-.028 1.605-.26 2.477-.647 4.979-.785 7.43-.267 4.756-.069 9.316 2.029 12.996 1.64 2.874 5.152 3.436 8.315 1.128 1.104-.806 2.2-1.732 3.162-2.778 1.71-1.858 3.311-3.854 4.968-5.779.274-.319.605-.574 1.107-1.043-.168 2.615-.302 4.929-.471 7.249-.436 5.97 1.218 10.735 3.859 14.888 1.819 2.859 4.529 4.424 7.67 5.244 3.854 1.007 7.886 1.305 12.218-.451 3.251-1.318 6.433-3.058 8.698-6.742.263-.428.678-.756 1.03-1.14 1.273 1.86 1.484 2.016 3.478 2.524-.726.919-1.389 1.763-2.058 2.603-2.577 3.233-4.747 6.724-5.911 10.674-1.486 5.041-1.187 9.509 1.111 13.093 2.31 3.602 5.662 5.479 9.942 5.746 5.841.364 11.285-1.998 16.304-7.336 3.158-3.359 5.804-7.19 8.271-11.167 3.829-6.17 7.144-12.608 10.272-19.129 2.437-5.08 4.683-10.239 6.234-15.567 1.089-3.741 2.054-7.527 1.67-11.12-.322-3.023-.895-5.972-3.024-7.68-1.224-.982-2.574-1.812-3.98-2.496-.912-.442-1.971-.716-3.2-.062-.642.342-1.302.647-1.958.864-1.98.653-3.951.778-5.945 1.959-4.547 2.692-8.804 5.997-12.841 9.834-.561.532-1.133 1.044-1.7 1.566-.012-.778.155-1.355.418-1.892.919-1.873 1.841-3.747 2.818-5.593 3.885-7.347 8.311-14.362 13.047-21.142 2.855-4.089 6.051-7.906 9.115-11.825.873-1.115 1.915-1.955 3.118-2.235.952-.223 1.379-.965 1.518-1.885.282-1.88.354-3.69-1.1-4.603-.703-.441-1.446-.815-2.17-1.223-.706-.397-1.443-.191-2.266.352-1.814 1.197-3.403 2.732-4.859 4.51-7.859 9.6-14.792 19.896-20.77 30.907-5.805 10.693-10.726 21.685-14.344 33.108-.078.245-.266.474-.402.711-.871.199-1.655.657-2.44 1.112l-1.481.847c-.828.468-1.688.853-2.48 1.413-4.27 3.015-8.619 4.311-12.951 4.176-1.495-.047-2.905-.64-4.206-1.267-.762-.367-1.207-1.326-1.838-1.964-3.194-3.224-3.809-9.372-1.463-14.813.66-1.529.979-1.729 2.343-1.937 2.774-.42 5.551-.787 8.337-1.421 3.652-.831 7.278-2.039 10.84-4.289 7.095-4.481 12.795-10.512 16.62-18.829.699-1.521 1.042-2.984.854-4.435-.229-1.763-.241-3.87-1.595-4.66-1.211-.708-2.38-1.533-3.68-2.089-1.331-.571-2.855-.458-4.425-.027-2.831.777-5.563 2.188-8.238 3.907-5.307 3.409-10.193 7.674-14.9 12.294-.416.412-.862.775-1.324 1.185zm206.823 118.301c.038.592.058 1.013.094 1.428.202 2.351.264 4.768.644 7.033.811 4.822 2.68 8.979 4.333 13.264 1.601 4.15 2.771 8.521 2.879 13.479.063 2.941-.386 5.928-.886 8.954-.549 3.322-1.579 6.073-4.749 7.759-2.521 1.342-5.073 2.328-7.364 1.756-5.734-1.432-10.756-4.23-14.664-8.771-1.368-1.59-2.587-3.432-2.978-5.935-.17-1.082.065-1.91.671-2.965.894-1.552 1.65-3.199 2.343-4.844.432-1.026.212-1.841-.429-2.507-.912-.951-1.863-1.271-3.38-.741-2.406.843-4.237 2.667-4.968 5.45-.104.393-.206.786-.342 1.174-1.018 2.897-1.236 5.647-.479 8.155 1.216 4.03 3.245 7.375 5.753 10.251 2.513 2.881 5.675 4.828 8.87 6.735 4.161 2.486 8.745 3.72 13.976 3.336 2.415-.178 4.781-.923 7.122-2.309 1.814-1.072 3.215-2.66 4.322-4.742 1.591-2.991 2.13-6.07 2.789-9.152.819-3.834 1.166-7.613 1.046-11.283-.22-6.756-1.665-12.896-3.758-18.689-1.02-2.824-2.067-5.63-3.009-8.506-.672-2.052-1.155-4.224-.97-6.676.187-2.472 1.438-4.488 3.553-5.509 6.363-3.071 12.728-4.94 19.029-4.931 1.56.003 3.156.131 4.383 1.42-.452.392-.767.74-1.118.957-2.698 1.667-5.461 2.952-8.276 3.671-4.217 1.075-8.434 2.081-12.647 3.062-1.062.247-1.864.835-2.577 2.016 1.239 1.586 2.651 2.692 4.833 2.514 5.957-.484 11.915-.896 18.006-3.229 3.163-1.212 6.428-2.368 8.285-6.58.494-1.123.812-2.156.807-3.276-.018-3.577-1.581-5.863-3.822-7.567-3.271-2.486-7.309-2.822-11.623-2.286-4.713.585-9.449 1.925-14.187 3.677-2.927 1.081-5.791 2.397-8.183 5.225-.059.068-.204.04-.376.068-.035-.213-.109-.435-.105-.677.07-5.385-1.947-9.316-4.66-12.765-.298-.38-.609-.764-.985-1.042-3.131-2.313-6.536-4.122-10.341-5.178-3.08-.855-6.358-1.032-9.654-1.161-5.54-.217-11.158.446-16.929 2.771-4.389 1.768-8.325 4.525-11.385 9.113-.907 1.36-1.169 3.698-.468 4.743.283.423.786.877 1.255.826 1.501-.16 2.984-.352 4.458-1.803 2.502-2.468 5.312-4.121 8.276-5.123.364-.123.735-.094 1.124-.138.064 1.656-.568 3.128-1.147 4.597-3.256 8.258-7.552 16.089-11.521 24.056-.418.837-.883 1.293-1.657 1.541-1.994.643-3.986 1.374-5.979 2.084-.687.246-1.354.507-1.788 1.396-1.604 3.283-.663 6.756 2.056 7.547.335.097.634.286 1.076.491-1.174 2.631-2.317 5.148-3.423 7.679-1.916 4.383-3.816 8.771-5.705 13.162-1.006 2.339-2.557 4.264-4.139 6.156-.567.679-1.198 1.174-2.042 1.305-1.44.222-2.021 1.267-1.452 2.606.369.873.955 1.595 1.511 2.314 1.299 1.686 2.731 1.738 4.913.604 2.449-1.273 4.31-3.257 5.609-5.924 2.129-4.371 4.183-8.773 6.228-13.18 2.104-4.533 4.164-9.084 6.233-13.631.504-1.108 1.121-1.688 2.223-1.9 4.436-.855 8.879-1.691 13.325-2.854 6.591-1.723 13.13-4.247 19.501-8.078 4.252-2.556 8.354-5.446 11.789-9.68.197-.24.465-.41.85-.743zm-161.852-204.708c-.127.289-.269.482-.277.646-.127 2.655 1.017 4.45 2.217 6.192.167.243.531.316.832.397 2.07.551 4.139.146 6.207-1.784.641-.598 1.328-1.121 1.961-1.73 4.608-4.439 8.282-9.716 11.439-15.437 4.283-7.76 7.753-15.864 11.539-23.832 3.909-8.23 7.906-16.412 12.5-24.316 1.227-2.109 1.476-2.358 3.318-2.034 3.482.612 6.924 1.348 10.356 2.105.799.177 1.491.645 2.329 1.021-1.075 1.966-2.436 3.311-3.696 4.727-6.577 7.396-12.846 15.078-18.266 23.578-4.072 6.385-7.549 12.994-9.727 20.172-1.692 5.578-2.578 11.076-2.105 16.341.701 7.807 3.607 13.712 9.966 16.268 3.545 1.425 7.327 1.622 11.393-1.579 1.656-1.303 3.287-2.728 4.788-4.29 5.694-5.922 10.179-12.914 14.366-20.08 4.751-8.131 9.012-16.501 12.247-25.288 1.32-3.588 2.427-7.172 2.416-10.759-.008-2.473-.137-4.912-.235-7.359-.015-.371-.118-.726-.242-1.043-.4-1.026-2.344-1.198-3.021-.146-.759 1.176-1.539 2.346-1.529 3.903.023 3.862-.728 7.785-2.313 11.721-3.114 7.732-6.927 15.139-11.325 22.278-1.095 1.777-2.228 3.539-3.437 5.23-1.972 2.757-4.015 5.455-6.037 8.168-2.787 3.739-5.767 7.233-9.298 10.018-2.083 1.643-4.208 2.494-6.271 1.841-2.469-.782-4.193-2.578-4.993-5.358-1.215-4.225-1.215-8.82-.015-13.754 1.519-6.244 4.381-12.022 7.843-17.547 4.934-7.874 10.529-15.182 16.524-22.114 2.563-2.963 5.166-5.879 7.752-8.815 3.035-3.447 3.864-6.524 2.729-10.201-.083-.268-.229-.534-.425-.684-1.412-1.075-2.74-2.31-4.293-3.134-3.287-1.744-6.941-2.697-10.626-3.554-.384-.089-.722-.303-1.137-.484.615-1.066 1.068-2.005 1.655-2.837 1.44-2.042 2.909-4.064 4.424-6.042 3.686-4.811 7.663-9.224 12.404-12.529 2.325-1.621 4.732-2.831 7.218-3.303 1.54-.292 3.063-.394 4.242.574.945.777 1.079 1.107.393 2.532-.626 1.302-1.401 2.553-2.183 3.778-1.944 3.051-3.94 6.066-5.892 9.112-.604.942-.948 1.94-.755 2.986 2.01-1.316 2.01-1.316 2.384.45l1.342-2.125c-.004.436-.187.783-.334 1.14-.504 1.22-.495 2.069.06 2.201.794.188 1.113-.693 1.521-1.29 1.566-2.294 3.057-4.652 4.688-6.889 1.422-1.948 2.473-4.007 3.228-6.25 2.802-8.323-1.917-15.216-7.857-14.915-2.906.147-5.69 1.483-8.442 3.145-5.968 3.605-10.863 8.957-15.331 14.837-3.178 4.183-6.158 8.554-9.123 12.922-1.06 1.562-2.033 2.155-3.574 2.27-3.472.258-6.985.702-10.503 1.358-2.788.519-5.605 1.571-8.32 3.227-3.331 2.031-4.728 6.762-2.822 9.416.653.909 2.142.994 3.094.002 1.232-1.284 2.601-2.087 4.02-2.627 3.486-1.326 6.958-2.008 10.407-2.358.145-.015.271.109.537.226-.268.577-.498 1.13-.775 1.66-1.615 3.084-3.347 6.12-4.846 9.251-4.472 9.341-8.847 18.721-13.275 28.08-2.445 5.167-5.199 10.165-8.614 14.755-2.249 3.022-4.736 5.761-7.697 7.768-.548.371-1.237.644-1.787.635-1.004-.019-1.951-.281-2.941-.444zm-89.47-144.851c.511-1.062.807-1.751 1.165-2.409 1.831-3.365 3.577-6.783 5.542-10.067 3.681-6.152 7.467-12.242 11.259-18.324 1.518-2.435 1.708-3.654.576-5.676-.907-1.62-2.438-1.437-3.708.529-2.264 3.503-4.516 7.017-6.703 10.571-5.114 8.312-9.874 16.822-14.232 25.541-2.517 5.035-4.882 10.136-7.375 15.182-.512 1.034-1.214 2.042-1.965 2.904-1.573 1.807-3.36 3.389-4.838 5.278-3.489 4.459-6.993 8.931-10.22 13.61-3.233 4.688-6.146 9.615-7.936 15.073-1.485 4.528-1.542 8.463.663 11.683 1.119 1.636 2.339 1.97 4.32.808.539-.316 1.054-.792 1.528-1.268 3.066-3.083 4.97-6.995 6.857-10.852 2.288-4.677 4.35-9.45 6.535-14.171 1.545-3.34 3.132-6.664 4.698-9.996 1.648-3.506 3.103-7.065 5.646-10.155.959-1.167 1.972-2.243 2.97-3.335 2.768-3.025 5.532-6.07 8.413-8.936 5.196-5.168 10.593-9.965 16.385-14.058 2.686-1.898 5.4-3.105 8.208-3.789 1.775-.432 3.506-.458 5.043.198 1.175.503 1.374.836.999 2.392-.298 1.237-.663 2.515-1.216 3.689-1.388 2.949-2.796 5.907-4.382 8.759-3.656 6.576-7.405 13.102-11.153 19.628-1.596 2.778-3.201 5.563-4.954 8.235-1.828 2.787-3.897 5.399-5.758 8.165-3.223 4.79-6.308 9.652-8.569 15.018-1.168 2.771-1.056 5.074-.213 7.217.427 1.086 1.251 1.8 2.555 1.523 1.12-.238 1.537-1.354 2.059-2.321 2.213-4.106 4.318-8.273 6.662-12.303 2.342-4.026 4.803-8.004 7.42-11.843 6.748-9.901 14.086-19.243 22.229-27.738 3.25-3.392 6.579-6.732 10.38-9.133 1.232-.778 2.564-1.322 3.861-1.771 1.053-.365 1.364.056 1.031 1.28-.427 1.569-.897 3.155-1.522 4.683-2.648 6.478-5.729 12.789-9.045 19-5.444 10.196-10.943 20.366-16.36 30.576-3.523 6.641-6.96 13.324-10.396 20.007-1.685 3.277-3.288 6.592-4.898 9.902-.264.543-.368 1.153-.547 1.732-.473 1.529.409 2.453.523 3.727.121 1.341.948 2.106 2.034 2.264.994.146 1.662-1.054 2.341-1.901.254-.317.468-.696.645-1.069 1.222-2.572 2.422-5.152 3.642-7.725 1.965-4.142 3.822-8.335 5.938-12.405 3.243-6.236 6.631-12.403 10.022-18.566 5.777-10.5 11.327-21.107 16.437-31.915 1.659-3.509 3.145-7.101 4.536-10.699 1.2-3.104 1.912-6.264 1.902-9.389-.007-2.424-.938-4.212-2.324-5.519-.816-.768-2.057-.994-3.133-1.409-.275-.106-.649-.097-.972.011-2.458.822-4.905 1.725-7.158 3.636-2.749 2.332-5.5 4.66-8.255 6.979-.473.398-.975.742-1.622 1.231-.1-1.248.442-2.082.802-2.952 1.911-4.613 3.645-9.207 1.229-13.122-.857-3.618-3.676-4.376-6.599-4.682-3.143-.329-6.467 1.032-9.644 2.686-5.762 3-10.87 7.628-15.949 12.25-1.594 1.449-3.153 2.893-5.409 3.531zm279.902 185.16c-.27.614-.484 1.179-.759 1.715-1.842 3.593-3.669 7.194-5.549 10.77-5.55 10.551-10.761 21.225-15.146 32.242-1.477 3.711-3.236 7.364-5.079 10.945-1.16 2.255-2.562 4.439-4.789 5.721-1.692.974-1.995 1.043-2.923-.334-.121-.182-.248-.363-.333-.573-.303-.747-.885-.662-1.556-.292-.703.389-.816.98-.762 1.685.142 1.811.518 3.462 1.155 5.02 1.078 2.632 5.459 4.049 8.486 1.038 1.389-1.382 2.844-2.699 4.112-4.215 2.161-2.582 3.476-5.678 4.793-8.735 2.63-6.107 5.013-12.315 7.909-18.311 5.018-10.389 10.345-20.649 15.558-30.956.2-.398.547-.729.814-1.077.683.394 1.336.637 1.838 1.084 1.809 1.616 3.578 3.282 5.338 4.961 2.214 2.114 4.438 4.217 6.587 6.413.84.857 1.961.969 3.064 1.13 1.026.151 1.867-.943 1.567-2.064-.363-1.357-.727-2.774-1.398-3.878-3.272-5.37-6.856-10.408-11.39-14.421-1.753-1.551-1.675-1.641-.195-4.455 1.716-3.267 3.436-6.532 5.114-9.816 1.042-2.038 1.584-4.125 1.404-6.193-.147-1.677-.771-2.986-1.994-3.727-.906-.549-1.611-.339-2.421.8-.88 1.236-1.744 2.521-2.439 3.867-2.045 3.956-3.995 7.956-5.998 11.932-.886 1.755-1.112 1.86-2.394 1.065-4.416-2.747-9.258-4.605-14.365-5.914-.743-.191-1.456-.46-2.239-.711.255-.597.388-.986.579-1.346 2.233-4.211 1.812-8.753-.58-11.376-1.873-2.053-4.17-3.182-6.953-3.363-5.197-.338-10.535.694-15.924 2.957-4.351 1.828-7.746 5.214-9.83 10.17-1.548 3.68-1.842 7.312-1.554 10.855.37 4.575 1.725 8.603 2.933 12.717 1.76 5.993 3.083 12.186 2.872 19.104-.124 4.094-.673 8.199-2.081 12.336-1.301 3.821-3.444 6.962-6.873 8.784-3.305 1.757-6.479 2.166-9.516 1.412-2.539-.63-4.633-1.98-5.953-4.422-1.395-2.576-2.179-5.538-2.475-8.794-.225-2.479.3-4.968 1.812-7.277 1.438-2.194 3.046-4.281 4.675-6.318 1.98-2.474 4.062-4.845 6.096-7.263.221-.263.459-.527.624-.826.564-1.024.314-1.843-.575-1.956-.361-.045-.922.105-1.061-.133-.468-.805-1.142-.367-1.799-.05-2.666 1.282-5.158 3.059-7.559 5.117-4.839 4.149-7.317 9.524-7.945 15.487-.642 6.096.903 11.249 3.062 15.995 1.742 3.83 4.496 6.392 8.257 7.554 1.713.53 3.465 1.006 5.275 1.255 4.004.552 8.053-.447 11.989-3.65 3.548-2.887 5.659-6.866 7.158-11.183 2.5-7.203 2.813-14.146 2.431-20.97-.443-7.89-2.27-15.066-4.397-22.096-.624-2.061-.991-4.301-1.308-6.535-.346-2.428.586-4.759 2.215-6.953 1.439-1.938 3.235-3.037 5.112-3.899 4.06-1.863 8.095-2.687 12.074-2.759 1.209-.021 2.382.221 3.506.508.674.173 1.224.667 2.037 1.137-1.47 1.723-2.666 3.228-3.966 4.594-.4.421-1.099.592-1.632.658-1.356.165-2.689.159-4.043.306-1.569.171-2.742 1.343-2.983 3.131-.293 2.174-.339 4.289.741 5.909.63.943 2.129 1.449 3.27.807 1.05-.59 2.021-.727 3.032-.712 6.005.087 11.605 1.341 16.979 3.263 2.182.776 4.273 1.709 6.268 3.109zm53.613 100.698c.253.549.428.821.52 1.145.449 1.586.753 3.273 1.331 4.766 3.376 8.716 6.251 17.813 10.871 25.586.641 1.08 1.398 2.09 2.271 2.911 1.324 1.244 3.289.111 3.881-2.128.472-1.785.363-3.373-.252-4.778-.341-.779-.687-1.558-1.075-2.296-3.808-7.24-6.438-15.341-9.277-23.283-.691-1.933-.98-4.164-1.281-6.336-.293-2.114.593-4.129 2.087-5.952 1.695-2.069 3.638-3.682 5.79-4.8 6.198-3.219 12.384-6.516 18.617-9.529 4.591-2.219 9.216-4.451 13.941-5.026 1.387-.168 2.251-1.209 2.709-2.841 1.063-3.794-.847-6.338-3.69-6.339-1.471 0-3.069.312-4.584.866-3.128 1.143-6.26 2.404-9.351 3.866-5.006 2.369-9.98 4.94-14.97 7.417-.579.287-1.169.514-1.754.769l-.202-.345c.351-.639.667-1.299 1.056-1.911 2.649-4.17 5.317-8.328 7.973-12.493 3.193-5.012 6.742-9.688 10.742-13.932 1.45-1.54 2.896-3.059 4.801-3.636.994-.302 1.613-1.25 1.947-2.414.821-2.865-.155-4.698-1.615-6.175-.835-.844-2.006-.909-3.274-.017-1.224.862-2.495 1.667-3.619 2.707-3.478 3.218-6.637 6.854-9.522 10.771-5.353 7.268-10.104 14.978-14.823 22.702-3.34 5.469-6.598 10.99-9.903 16.48-.454.753-.843 1.646-1.833 1.86l-.743-.993c-.999.624-1.858 1.196-2.734 1.7-3.201 1.839-6.372 3.808-9.72 4.91-5.157 1.698-9.986 1.714-14.494.283-3.366-1.068-4.339-3.61-3.293-7.882.16-.653.4-1.306.626-1.954 1.675-4.792 4.687-8.472 8.343-11.578 6.784-5.762 13.983-10.179 21.514-13.413 2.029-.872 4.098-1.439 6.148-2.133.877-.297 1.586-.236 1.809.806.317 1.5 1.211 2.193 2.678 2.13 1.004-.811 2.033-1.616 2.367-3.132.682-3.097.307-5.65-1.433-7.499-1.806-1.921-4.196-2.262-6.963-1.409-10.843 3.343-21.186 8.943-30.782 17.322-6.934 6.054-10.58 13.866-11.318 22.707-.379 4.541.585 8.444 3.131 11.312 1.523 1.715 3.63 2.437 5.607 3.383 2.795 1.338 6.023 1.36 9.222 1.329 3.312-.034 6.702-1.143 9.986-3.221 1.795-1.135 3.54-2.432 5.595-3.855-.522 1.118-.85 1.878-1.229 2.615-1.652 3.22-3.39 6.402-4.96 9.656-1.409 2.922-3.531 5.679-3.552 8.988l-.087.188c-.55 1.734-.008 3.925 1.15 4.653 1.137.714 2.536.436 3.562-1.006 1.195-1.682 2.29-3.477 3.267-5.303 2.528-4.727 4.958-9.501 7.451-14.244.331-.63.803-1.194 1.34-1.975zm-339.802-132.624c-.609.592-1.309 1.115-1.822 1.804-.989 1.328-1.9 2.731-2.796 4.136-3.18 4.986-5.064 10.294-6.018 15.844-.723 4.207.988 6.599 3.464 8.375.92.661 1.973 1.108 3.327.869 4.475-.791 8.749-2.837 12.894-5.848 7.399-5.373 13.364-12.54 18.472-20.631 4.98-7.889 9.562-16.032 13.831-24.328 4.488-8.722 8.927-17.47 13.293-26.248 3.591-7.22 7.011-14.515 10.574-21.749 2.149-4.363 4.34-8.716 6.667-12.995 3.725-6.853 7.61-13.623 11.362-20.462 1.516-2.763 2.53-5.636 2.964-8.678.311-2.184-.788-4.007-2.521-4.597-1.716-.583-2.062-.574-3.427 1.354-1.638 2.313-3.289 4.701-4.545 7.226-2.91 5.847-5.71 11.755-8.321 17.718-2.432 5.553-5.433 10.664-9.436 15.101-1.448 1.605-3.051 3.258-4.75 4.268-3.368 2.001-4.708 1.568-5.986-1.422-1.431-3.347-1.033-7.33.146-11.231 1.174-3.885 2.862-7.77 4.709-11.485 3.889-7.819 8.731-15.072 13.949-21.991 4.916-6.518 10.082-12.807 15.135-19.2 1.11-1.404 2.277-2.768 3.292-4.249.961-1.402 1.219-2.919.8-4.323-.194-.649-.448-1.263-.708-1.868-.748-1.741-2.346-1.724-3.852.019-1.258 1.456-2.558 2.868-3.777 4.365-6.012 7.383-11.942 14.844-17.432 22.716-3.537 5.072-7.027 10.179-9.993 15.646-3.167 5.837-6.064 11.757-7.624 18.098-.926 3.764-1.746 7.525-1.138 11.041.351 2.028.763 4.041 1.335 5.943 1.544 5.14 4.8 7.789 10.034 7.449.303-.02.57.17.977.303-.268.729-.47 1.368-.736 1.986-4.718 10.964-10.298 21.57-15.828 32.178-4.697 9.01-9.839 17.8-15.386 26.334-4.223 6.496-9.01 12.295-14.875 16.801-2.729 2.095-5.544 3.971-8.567 4.91-1.307.405-1.604.133-1.352-1.298.498-2.818 1.013-5.624 2.108-8.437 1.073-2.758 2.005-5.564 2.831-8.37.599-2.043.594-3.94-1.274-5.074zm162.67 194.711c.36.121.569.164.752.256 5.059 2.568 10.715 2.847 16.881 1.087 7.039-2.009 13.092-6.378 17.739-13.721 5.689-8.99 8.943-18.329 8.223-28.067-.461-6.245-2.44-11.297-6.808-14.479-1.55-1.13-3.304-1.744-5.102-2.353-3.165-1.07-6.548-1.28-10.14-.166-6.219 1.93-9.823 5.695-11.349 12.351-.236 1.033-.347 1.951.045 2.765.662 1.377.505 2.91-.317 4.586-.306.622-.508 1.288-.821 1.905-2.991 5.893-5.985 11.784-9.018 17.657-.295.573-.835 1.055-1.304 1.514-1.5 1.465-2.701 2.959-2.831 5.233-.065 1.16-.593 2.504-1.149 3.668-3.32 6.966-6.399 14.008-9.211 21.145-2.896 7.352-4.958 14.819-7.013 22.292-.232.846-.446 1.773-.908 2.501-.737 1.166-.897 2.307-.96 3.461-.06 1.089-.034 2.17.054 3.215.18 2.122 1.889 3.844 3.814 3.404.867-.196 1.439-.561 1.79-1.542.62-1.737 1.3-3.466 1.854-5.213 2.19-6.91 4.169-13.86 6.557-20.73 2.322-6.681 5.3-13.198 8.488-19.619.178-.358.432-.68.734-1.15zm129.522-93.3c-.062.779-.024 1.393-.179 1.994-.235.915-.64 1.815-.908 2.73-.768 2.613-1.521 5.229-2.245 7.848-.517 1.871.146 3.313.383 4.918.335 2.269 1.646 3.39 3.358 4.082.227.091.537.086.806 0 2.5-.79 4.655-5.106 3.598-7.298-.55-1.14-.695-2.313-.141-3.774.245-.642.431-1.3.684-1.939 2.836-7.159 6.402-14.015 10.123-20.8 3.829-6.983 8.08-13.676 13-19.879 1.288-1.624 2.631-3.192 3.915-4.818 2.203-2.793 2.34-6.227.304-8.039-.656-.583-1.431-1.007-2.169-1.517-1.202.916-2.238.925-3.251.418-1.424-.713-3.006-1.01-4.77-.562-1.425.361-2.863.729-4.277 1.29-6.567 2.597-12.903 6.26-19.127 10.413-4.54 3.029-9.02 6.191-13.15 10.155-4.008 3.847-6.432 8.631-7.991 13.842-1.195 3.992-.826 7.658.014 11.096 1.18 4.82 4.86 6.518 9.393 6.184 2.488-.184 5.017-1.241 7.441-2.844 1.662-1.101 3.314-2.234 5.189-3.5zm-143.968 60.698l.379.152-.089.59c-.102.524-.206 1.049-.315 1.575-1.645 7.889-3.024 15.751-3.679 23.569-.153 1.825.275 3.185.922 4.491.459.931 1.302 1.246 2.34.989 1.091-.269 1.656-1.299 1.96-2.377.44-1.568.862-3.158 1.1-4.722.93-6.166 2.068-12.326 3.559-18.512 3.05-12.67 8.447-24.468 15.931-35.543.448-.662.813-1.465 1.013-2.217.312-1.174.474-2.364.655-3.543.817-5.287-2.19-9.8-5.267-10.68-3.166-.905-6.534-.76-10.082.282-4.03 1.184-7.94 3.133-11.803 5.432-6.704 3.99-12.918 9.071-18.856 14.741-1.407 1.344-2.768 2.817-3.986 4.389-2.635 3.394-4.558 7.209-5.596 11.27-1.023 4.007-.942 7.835-.085 11.365 1.535 6.335 5.291 9.64 11.549 8.955 6.669-.729 13.088-3.611 19.029-9.094.427-.392.88-.743 1.321-1.112zm76.867-212.669l-.094-.056c3.582-6.374 7.191-12.734 10.726-19.135.657-1.19 1.2-2.54 1.472-3.816.588-2.767.023-4.937-1.898-6.165-.83-.53-1.349-.402-2.112.574-.592.758-1.171 1.554-1.649 2.394-1.135 1.995-2.167 4.048-3.312 6.038-5.521 9.598-11.151 19.136-16.579 28.786-4.745 8.436-9.48 16.898-13.845 25.519-5.181 10.235-9.936 20.663-14.925 30.987-1.842 3.813-3.713 7.64-6.393 10.962-.868 1.076-1.491 2.111-1.95 3.497-.685 2.071-.384 3.546.336 4.977.317.63.611 1.112 1.471 1.21 2.026.231 3.581-.975 4.989-2.771.974-1.243 1.888-2.598 2.629-4.001 1.852-3.505 3.665-7.038 5.358-10.612 3.213-6.779 6.135-13.685 9.534-20.375 5.104-10.044 10.434-19.989 15.821-29.896 3.326-6.117 6.937-12.084 10.421-18.117zm-31.577 12.294l.144.083c5.259-9.109 10.537-18.207 15.754-27.34.708-1.238 1.302-2.646 1.605-3.983.508-2.228.08-4.073-1.446-5.132-1.298-.901-1.685-.801-2.867.896-1.428 2.05-2.857 4.115-4.145 6.26-5.159 8.601-10.304 17.211-15.376 25.864-4.437 7.569-8.852 15.155-13.119 22.82-3.184 5.718-6.038 11.604-8.358 17.682-1.155 3.026-2.176 6.098-3.495 9.066-1.073 2.415-1.707 4.721-1.713 7.146-.006 2.249.57 3.228 2.43 3.616 1.409.294 1.901.048 2.669-1.657 1.222-2.716 2.51-5.43 3.498-8.203 2.928-8.21 6.631-16.118 10.963-23.776 4.422-7.815 8.966-15.564 13.456-23.342z" fill="none"/><path fill-rule="evenodd" clip-rule="evenodd" d="M161.334 272.863c.461-.41.908-.773 1.324-1.183 4.707-4.62 9.593-8.885 14.9-12.294 2.675-1.719 5.408-3.13 8.238-3.907 1.57-.431 3.095-.544 4.425.027 1.299.556 2.469 1.38 3.68 2.089 1.354.79 1.365 2.897 1.595 4.66.188 1.45-.155 2.914-.854 4.435-3.825 8.317-9.525 14.348-16.62 18.829-3.562 2.25-7.188 3.458-10.84 4.289-2.786.634-5.563 1.001-8.337 1.421-1.364.207-1.683.407-2.343 1.937-2.346 5.441-1.73 11.59 1.463 14.813.631.638 1.076 1.597 1.838 1.964 1.301.627 2.711 1.22 4.206 1.267 4.332.135 8.681-1.161 12.951-4.176.793-.561 1.652-.945 2.48-1.413.494-.28.988-.562 1.481-.847.785-.455 1.569-.913 2.44-1.112.137-.237.325-.466.402-.711 3.618-11.424 8.539-22.415 14.344-33.108 5.978-11.011 12.911-21.308 20.77-30.907 1.456-1.778 3.045-3.313 4.859-4.51.823-.543 1.56-.75 2.266-.352.724.408 1.467.782 2.17 1.223 1.454.913 1.382 2.723 1.1 4.603-.138.919-.566 1.662-1.518 1.885-1.203.281-2.245 1.12-3.118 2.235-3.064 3.919-6.259 7.736-9.115 11.825-4.736 6.78-9.162 13.795-13.047 21.142-.977 1.846-1.899 3.72-2.818 5.593-.263.536-.43 1.113-.418 1.892.567-.522 1.14-1.034 1.7-1.566 4.037-3.837 8.293-7.142 12.841-9.834 1.994-1.181 3.965-1.306 5.945-1.959.656-.217 1.316-.522 1.958-.864 1.229-.654 2.288-.381 3.2.062 1.406.684 2.756 1.514 3.98 2.496 2.13 1.708 2.702 4.656 3.024 7.68.384 3.593-.581 7.379-1.67 11.12-1.551 5.328-3.797 10.487-6.234 15.567-3.128 6.521-6.443 12.959-10.272 19.129-2.467 3.977-5.112 7.808-8.271 11.167-5.019 5.338-10.462 7.7-16.304 7.336-4.28-.268-7.633-2.145-9.942-5.746-2.297-3.584-2.597-8.052-1.111-13.093 1.164-3.95 3.334-7.44 5.911-10.674.668-.84 1.332-1.684 2.058-2.603-1.994-.509-2.205-.664-3.478-2.524-.352.384-.768.712-1.03 1.14-2.265 3.685-5.447 5.424-8.698 6.742-4.333 1.756-8.364 1.458-12.218.451-3.142-.82-5.852-2.385-7.67-5.244-2.641-4.152-4.295-8.918-3.859-14.888.169-2.32.303-4.634.471-7.249-.502.469-.833.724-1.107 1.043-1.658 1.925-3.258 3.921-4.968 5.779-.962 1.046-2.057 1.973-3.162 2.778-3.163 2.308-6.675 1.746-8.315-1.128-2.098-3.68-2.296-8.24-2.029-12.996.137-2.45.524-4.953.785-7.43.046-.438.018-.863.028-1.605-.778.668-1.357 1.19-1.956 1.674-2.63 2.127-5.242 4.298-7.907 6.351-3.211 2.476-6.808 1.363-7.795-2.173-1.235-4.426-.979-9.127.144-14.173 1.666-7.489 5.162-14.34 9.139-21.005 6.768-11.342 14.484-21.929 22.708-32.09 2.256-2.787 4.456-5.636 6.748-8.384.915-1.097 1.989-2.036 3.032-2.976 1.012-.912 1.799-.956 2.619-.298 2.253 1.808 2.248 5.453-.044 8.507-.706.94-1.47 1.833-2.243 2.706-6.241 7.055-12.018 14.573-17.509 22.343-4.729 6.692-9.289 13.528-13.224 20.773-2.306 4.245-4.166 8.637-5.414 13.2-.395 1.443-.668 2.876-.466 4.216.835.362 1.631-.124 2.331-.731 2.119-1.841 4.263-3.659 6.284-5.652 3.875-3.821 7.326-8.142 10.739-12.502 1.953-2.496 3.929-4.945 6.134-7.205 1.875-1.922 3.406-4.334 5.059-6.558 1.901-2.557 3.762-5.151 5.655-7.717 1.198-1.624 1.385-1.488 2.938-1.033 2.179.638 2.505 2.57 2.355 4.948-.03.475-.255 1.059-.532 1.497-.63.997-1.326 1.956-2.035 2.893-5.292 6.984-9.858 14.476-14.166 22.133-1.565 2.783-2.935 5.687-4.261 8.583-2.307 5.037-3.279 10.143-3.442 15.229-.031.97-.334 2.286.646 2.606.96.314 1.742-.787 2.484-1.534 2.857-2.87 5.226-6.234 7.398-9.719 4.384-7.032 8.59-14.182 12.986-21.207 3.913-6.254 7.962-12.419 11.991-18.597 2.091-3.205 4.275-6.344 6.398-9.526.762-1.143 1.618-2.075 2.783-2.459 2.657-.875 4.609.375 4.442 3.264-.087 1.507-.535 3.025-1.767 4.248-.239.237-.425.583-.679.767-2.628 1.902-4.219 4.838-5.916 7.592-4.97 8.064-9.844 16.189-14.74 24.301-.837 1.386-.811 1.483-.384 3.012zm33.3 39.08c-1.078 2.775-2.311 5.301-4.283 7.403-.417.446-.777.968-1.156 1.462-1.781 2.32-3.323 4.792-4.496 7.488-1.124 2.586-.981 4.863.482 6.243 1.005.949 2.184 1.619 3.639 1.74 3.806.315 7.336-1.611 10.644-4.733 2.708-2.558 5.208-5.43 7.239-8.698 2.457-3.953 4.804-7.986 7.084-12.048 3.792-6.755 7.056-13.732 9.786-20.906 1.03-2.706 1.907-5.406 1.752-8.169-.117-2.09-.271-2.615-2.073-2.734-.799-.052-1.692.058-2.522.369-2.863 1.071-5.611 2.689-8.247 4.714-6.091 4.682-11.312 10.555-16.226 16.843-1.616 2.067-3.207 4.162-4.764 6.283-.452.615-1.107 1.326-.654 2.102 1.743.071 1.743.071 3.795 2.641zm-7.027-47.813c-1.923.179-3.584 1.036-5.214 2.043-6.12 3.782-11.728 8.59-16.958 14.134-.298.315-.535.711-.874 1.17 8.57-1.162 19.002-8.664 23.046-17.347zM368.157 391.164c-.385.333-.653.503-.851.746-3.435 4.233-7.537 7.124-11.789 9.68-6.371 3.831-12.91 6.355-19.501 8.078-4.446 1.162-8.89 1.998-13.325 2.854-1.102.212-1.719.792-2.223 1.9-2.069 4.547-4.129 9.098-6.233 13.631-2.045 4.406-4.099 8.809-6.228 13.18-1.3 2.667-3.16 4.65-5.609 5.924-2.182 1.134-3.614 1.081-4.913-.604-.556-.72-1.142-1.441-1.511-2.314-.568-1.34.012-2.385 1.452-2.606.844-.131 1.475-.626 2.042-1.305 1.582-1.893 3.133-3.817 4.139-6.156 1.889-4.392 3.789-8.779 5.705-13.162 1.105-2.53 2.249-5.048 3.423-7.679-.442-.205-.741-.395-1.076-.491-2.719-.791-3.659-4.264-2.056-7.547.434-.89 1.102-1.15 1.788-1.396 1.992-.71 3.984-1.441 5.979-2.084.774-.248 1.239-.704 1.657-1.541 3.969-7.967 8.265-15.798 11.521-24.056.579-1.469 1.212-2.94 1.147-4.597-.389.044-.76.015-1.124.138-2.964 1.002-5.774 2.655-8.276 5.123-1.474 1.451-2.957 1.643-4.458 1.803-.469.051-.972-.403-1.255-.826-.701-1.045-.439-3.383.468-4.743 3.06-4.588 6.996-7.346 11.385-9.113 5.771-2.325 11.389-2.988 16.929-2.771 3.296.129 6.574.306 9.654 1.161 3.805 1.056 7.21 2.864 10.341 5.178.376.278.688.662.985 1.042 2.713 3.448 4.73 7.38 4.66 12.765-.004.242.07.464.105.677.172-.028.317 0 .376-.068 2.392-2.827 5.256-4.144 8.183-5.225 4.737-1.752 9.474-3.092 14.187-3.677 4.314-.536 8.353-.2 11.623 2.286 2.241 1.704 3.805 3.99 3.822 7.567.005 1.12-.312 2.153-.807 3.276-1.857 4.212-5.122 5.368-8.285 6.58-6.091 2.333-12.049 2.744-18.006 3.229-2.182.179-3.594-.928-4.833-2.514.713-1.181 1.515-1.769 2.577-2.016 4.214-.98 8.431-1.986 12.647-3.062 2.815-.719 5.578-2.004 8.276-3.671.352-.217.666-.565 1.118-.957-1.227-1.289-2.823-1.417-4.383-1.42-6.302-.01-12.666 1.859-19.029 4.931-2.114 1.021-3.366 3.037-3.553 5.509-.186 2.452.298 4.624.97 6.676.941 2.876 1.989 5.682 3.009 8.506 2.093 5.794 3.538 11.934 3.758 18.689.12 3.67-.227 7.449-1.046 11.283-.659 3.082-1.198 6.161-2.789 9.152-1.107 2.082-2.508 3.67-4.322 4.742-2.341 1.386-4.707 2.131-7.122 2.309-5.23.384-9.814-.85-13.976-3.336-3.195-1.907-6.357-3.854-8.87-6.735-2.508-2.876-4.537-6.221-5.753-10.251-.757-2.508-.538-5.258.479-8.155.136-.388.238-.781.342-1.174.73-2.783 2.562-4.607 4.968-5.45 1.517-.529 2.468-.21 3.38.741.641.666.86 1.48.429 2.507-.692 1.645-1.449 3.292-2.343 4.844-.605 1.055-.841 1.883-.671 2.965.391 2.503 1.609 4.345 2.978 5.935 3.908 4.54 8.93 7.339 14.664 8.771 2.291.572 4.844-.414 7.364-1.756 3.17-1.686 4.2-4.437 4.749-7.759.5-3.026.949-6.013.886-8.954-.107-4.958-1.278-9.328-2.879-13.479-1.653-4.285-3.522-8.441-4.333-13.264-.38-2.266-.441-4.683-.644-7.033-.035-.418-.055-.839-.093-1.431zm-37.633 10.979c-.149.006.069.039.288-.019 1.255-.325 2.51-.698 3.765-1.008 7.105-1.758 13.975-5.104 20.65-9.61 3.016-2.035 5.85-4.321 8.005-7.817 1.221-1.979 1.832-4.635.547-6.42-1.857-2.578-4.344-4.146-7.146-5.256-4.893-1.938-10.308-2.184-15.813-2.116-.806.011-1.647.193-2.552.306-.044.492-.12.766-.08.98.603 3.264-.153 6.647-1.643 10.018-1.82 4.117-3.773 8.188-5.677 12.275-.761 1.633-1.586 3.245-2.298 4.894-.534 1.235-.381 1.689.339 2.255.494.386.926.863 1.615 1.518zM206.305 186.456c.99.163 1.937.426 2.938.442.55.009 1.239-.264 1.787-.635 2.961-2.006 5.448-4.746 7.697-7.768 3.415-4.59 6.169-9.588 8.614-14.755 4.429-9.358 8.803-18.739 13.275-28.08 1.499-3.131 3.23-6.167 4.846-9.251.278-.529.507-1.083.775-1.66-.266-.117-.392-.241-.537-.226-3.45.35-6.921 1.032-10.407 2.358-1.419.54-2.788 1.343-4.02 2.627-.952.992-2.441.907-3.094-.002-1.906-2.654-.509-7.385 2.822-9.416 2.715-1.655 5.533-2.708 8.32-3.227 3.518-.656 7.032-1.1 10.503-1.358 1.541-.115 2.515-.708 3.574-2.27 2.964-4.368 5.945-8.739 9.123-12.922 4.468-5.88 9.363-11.232 15.331-14.837 2.752-1.662 5.536-2.997 8.442-3.145 5.94-.301 10.659 6.592 7.857 14.915-.755 2.242-1.806 4.301-3.228 6.25-1.632 2.236-3.122 4.594-4.688 6.889-.407.596-.727 1.478-1.521 1.29-.555-.131-.563-.981-.06-2.201.147-.357.33-.705.334-1.14l-1.342 2.125c-.374-1.766-.374-1.766-2.384-.45-.193-1.046.151-2.044.755-2.986 1.951-3.046 3.947-6.061 5.892-9.112.781-1.225 1.557-2.476 2.183-3.778.687-1.425.553-1.755-.393-2.532-1.179-.967-2.702-.865-4.242-.574-2.485.472-4.893 1.682-7.218 3.303-4.741 3.305-8.719 7.718-12.404 12.529-1.515 1.978-2.983 4-4.424 6.042-.587.832-1.04 1.771-1.655 2.837.415.181.753.395 1.137.484 3.685.857 7.339 1.81 10.626 3.554 1.553.824 2.881 2.059 4.293 3.134.196.15.342.417.425.684 1.136 3.677.307 6.754-2.729 10.201-2.586 2.936-5.188 5.853-7.752 8.815-5.995 6.932-11.59 14.241-16.524 22.114-3.462 5.524-6.325 11.303-7.843 17.547-1.2 4.934-1.2 9.53.015 13.754.8 2.78 2.524 4.576 4.993 5.358 2.063.653 4.188-.198 6.271-1.841 3.531-2.785 6.511-6.279 9.298-10.018 2.022-2.713 4.065-5.411 6.037-8.168 1.209-1.691 2.342-3.453 3.437-5.23 4.398-7.139 8.211-14.546 11.325-22.278 1.586-3.936 2.337-7.858 2.313-11.721-.01-1.557.771-2.727 1.529-3.903.678-1.052 2.621-.88 3.021.146.124.318.228.673.242 1.043.099 2.447.228 4.886.235 7.359.011 3.587-1.096 7.171-2.416 10.759-3.235 8.786-7.496 17.157-12.247 25.288-4.188 7.166-8.672 14.157-14.366 20.08-1.501 1.562-3.132 2.987-4.788 4.29-4.066 3.201-7.848 3.004-11.393 1.579-6.359-2.556-9.265-8.461-9.966-16.268-.473-5.266.413-10.764 2.105-16.341 2.177-7.179 5.654-13.787 9.727-20.172 5.42-8.5 11.688-16.182 18.266-23.578 1.261-1.417 2.621-2.761 3.696-4.727-.838-.377-1.53-.845-2.329-1.021-3.433-.757-6.874-1.493-10.356-2.105-1.842-.324-2.091-.075-3.318 2.034-4.595 7.905-8.591 16.086-12.5 24.316-3.785 7.968-7.255 16.071-11.539 23.832-3.158 5.721-6.831 10.998-11.439 15.437-.633.609-1.32 1.132-1.961 1.73-2.067 1.93-4.136 2.335-6.207 1.784-.301-.081-.665-.154-.832-.397-1.2-1.742-2.345-3.538-2.217-6.192.011-.162.153-.356.28-.644zm81.48-81.907l-.168-.13-.877 1.188.219.176.826-1.234zM116.835 41.605c2.255-.639 3.815-2.082 5.408-3.531 5.079-4.621 10.188-9.25 15.949-12.25 3.177-1.654 6.501-3.015 9.644-2.686 2.923.306 5.742 1.064 6.599 4.682 2.416 3.915.682 8.509-1.229 13.122-.36.87-.902 1.704-.802 2.952.647-.489 1.149-.833 1.622-1.231 2.755-2.319 5.506-4.647 8.255-6.979 2.253-1.911 4.7-2.814 7.158-3.636.323-.107.697-.117.972-.011 1.076.416 2.317.641 3.133 1.409 1.386 1.306 2.317 3.095 2.324 5.519.01 3.125-.702 6.284-1.902 9.389-1.391 3.599-2.876 7.19-4.536 10.699-5.109 10.808-10.66 21.415-16.437 31.915-3.391 6.163-6.779 12.33-10.022 18.566-2.116 4.07-3.973 8.263-5.938 12.405-1.22 2.573-2.42 5.153-3.642 7.725-.177.373-.391.752-.645 1.069-.68.847-1.348 2.046-2.341 1.901-1.086-.158-1.914-.923-2.034-2.264-.115-1.274-.996-2.198-.523-3.727.179-.58.283-1.189.547-1.732 1.61-3.311 3.213-6.625 4.898-9.902 3.435-6.683 6.873-13.367 10.396-20.007 5.417-10.21 10.916-20.379 16.36-30.576 3.315-6.21 6.396-12.522 9.045-19 .625-1.527 1.095-3.114 1.522-4.683.333-1.224.021-1.645-1.031-1.28-1.297.449-2.628.993-3.861 1.771-3.801 2.401-7.13 5.742-10.38 9.133-8.143 8.496-15.481 17.837-22.229 27.738-2.617 3.838-5.078 7.817-7.42 11.843-2.344 4.029-4.449 8.197-6.662 12.303-.521.968-.938 2.083-2.059 2.321-1.304.276-2.128-.438-2.555-1.523-.843-2.143-.956-4.446.213-7.217 2.262-5.366 5.346-10.228 8.569-15.018 1.861-2.766 3.931-5.378 5.758-8.165 1.753-2.672 3.358-5.458 4.954-8.235 3.748-6.526 7.497-13.052 11.153-19.628 1.586-2.853 2.994-5.81 4.382-8.759.553-1.174.917-2.453 1.216-3.689.375-1.556.176-1.889-.999-2.392-1.537-.657-3.268-.63-5.043-.198-2.809.683-5.522 1.89-8.208 3.789-5.792 4.093-11.189 8.89-16.385 14.058-2.881 2.866-5.645 5.911-8.413 8.936-.998 1.092-2.011 2.168-2.97 3.335-2.543 3.09-3.998 6.649-5.646 10.155-1.566 3.332-3.153 6.656-4.698 9.996-2.185 4.722-4.247 9.494-6.535 14.171-1.887 3.856-3.792 7.769-6.857 10.852-.474.477-.989.952-1.528 1.268-1.98 1.163-3.201.828-4.32-.808-2.204-3.22-2.147-7.155-.663-11.683 1.79-5.458 4.703-10.385 7.936-15.073 3.227-4.679 6.731-9.15 10.22-13.61 1.478-1.889 3.265-3.471 4.838-5.278.751-.862 1.454-1.87 1.965-2.904 2.494-5.045 4.859-10.146 7.375-15.182 4.358-8.719 9.119-17.229 14.232-25.541 2.187-3.554 4.438-7.068 6.703-10.571 1.271-1.966 2.802-2.149 3.708-.529 1.132 2.022.941 3.242-.576 5.676-3.792 6.082-7.579 12.171-11.259 18.324-1.964 3.284-3.71 6.702-5.542 10.067-.356.658-.653 1.348-1.164 2.409zM396.737 226.765c-1.995-1.4-4.086-2.333-6.264-3.112-5.374-1.922-10.975-3.176-16.979-3.263-1.012-.015-1.982.122-3.032.712-1.141.642-2.64.136-3.27-.807-1.08-1.621-1.034-3.735-.741-5.909.241-1.788 1.414-2.959 2.983-3.131 1.354-.147 2.687-.141 4.043-.306.533-.065 1.231-.237 1.632-.658 1.3-1.366 2.496-2.871 3.966-4.594-.813-.47-1.363-.964-2.037-1.137-1.124-.287-2.297-.529-3.506-.508-3.979.072-8.015.896-12.074 2.759-1.877.862-3.673 1.961-5.112 3.899-1.629 2.193-2.561 4.525-2.215 6.953.316 2.234.684 4.474 1.308 6.535 2.128 7.03 3.954 14.207 4.397 22.096.383 6.825.069 13.767-2.431 20.97-1.499 4.316-3.61 8.296-7.158 11.183-3.937 3.203-7.985 4.202-11.989 3.65-1.811-.249-3.562-.725-5.275-1.255-3.761-1.162-6.515-3.724-8.257-7.554-2.158-4.746-3.703-9.899-3.062-15.995.628-5.963 3.106-11.338 7.945-15.487 2.4-2.058 4.893-3.834 7.559-5.117.657-.317 1.331-.755 1.799.05.139.239.699.088 1.061.133.89.113 1.14.931.575 1.956-.165.298-.403.563-.624.826-2.034 2.418-4.115 4.789-6.096 7.263-1.629 2.037-3.237 4.125-4.675 6.318-1.513 2.31-2.037 4.799-1.812 7.277.296 3.256 1.08 6.218 2.475 8.794 1.32 2.441 3.414 3.792 5.953 4.422 3.037.754 6.211.345 9.516-1.412 3.429-1.822 5.572-4.963 6.873-8.784 1.408-4.137 1.957-8.242 2.081-12.336.211-6.919-1.112-13.111-2.872-19.104-1.208-4.114-2.562-8.142-2.933-12.717-.288-3.543.006-7.175 1.554-10.855 2.084-4.956 5.479-8.342 9.83-10.17 5.389-2.263 10.727-3.295 15.924-2.957 2.783.181 5.08 1.311 6.953 3.363 2.392 2.623 2.813 7.166.58 11.376-.191.36-.324.749-.579 1.346.783.251 1.496.521 2.239.711 5.107 1.309 9.949 3.167 14.365 5.914 1.281.795 1.508.69 2.394-1.065 2.003-3.976 3.953-7.976 5.998-11.932.695-1.346 1.56-2.631 2.439-3.867.81-1.139 1.515-1.35 2.421-.8 1.223.741 1.847 2.05 1.994 3.727.18 2.068-.362 4.156-1.404 6.193-1.679 3.284-3.398 6.549-5.114 9.816-1.479 2.814-1.558 2.904.195 4.455 4.533 4.013 8.117 9.051 11.39 14.421.672 1.104 1.035 2.521 1.398 3.878.3 1.121-.541 2.215-1.567 2.064-1.104-.162-2.225-.273-3.064-1.13-2.149-2.195-4.373-4.298-6.587-6.413-1.76-1.679-3.529-3.346-5.338-4.961-.502-.447-1.155-.69-1.838-1.084-.268.348-.614.679-.814 1.077-5.213 10.307-10.54 20.567-15.558 30.956-2.896 5.995-5.279 12.203-7.909 18.311-1.317 3.058-2.632 6.153-4.793 8.735-1.269 1.516-2.724 2.833-4.112 4.215-3.027 3.011-7.408 1.594-8.486-1.038-.638-1.558-1.014-3.209-1.155-5.02-.055-.704.059-1.296.762-1.685.671-.37 1.253-.455 1.556.292.085.21.212.392.333.573.928 1.377 1.23 1.308 2.923.334 2.228-1.281 3.629-3.466 4.789-5.721 1.843-3.581 3.603-7.234 5.079-10.945 4.385-11.017 9.596-21.691 15.146-32.242 1.88-3.575 3.707-7.176 5.549-10.77.271-.533.486-1.098.755-1.712zM450.35 327.463c-.536.781-1.009 1.345-1.342 1.978-2.493 4.743-4.923 9.518-7.451 14.244-.977 1.826-2.071 3.621-3.267 5.303-1.026 1.441-2.426 1.72-3.562 1.006-1.158-.729-1.7-2.919-1.15-4.653l.087-.188c.021-3.31 2.143-6.066 3.552-8.988 1.57-3.254 3.308-6.437 4.96-9.656.379-.737.706-1.497 1.229-2.615-2.055 1.424-3.8 2.721-5.595 3.855-3.284 2.078-6.675 3.187-9.986 3.221-3.198.031-6.427.009-9.222-1.329-1.978-.946-4.084-1.668-5.607-3.383-2.546-2.868-3.51-6.771-3.131-11.312.738-8.841 4.385-16.653 11.318-22.707 9.597-8.379 19.939-13.979 30.782-17.322 2.767-.853 5.157-.512 6.963 1.409 1.739 1.849 2.114 4.402 1.433 7.499-.334 1.516-1.363 2.321-2.367 3.132-1.467.063-2.36-.63-2.678-2.13-.223-1.042-.932-1.103-1.809-.806-2.051.693-4.119 1.261-6.148 2.133-7.53 3.234-14.729 7.651-21.514 13.413-3.656 3.106-6.668 6.786-8.343 11.578-.226.648-.466 1.301-.626 1.954-1.046 4.271-.073 6.813 3.293 7.882 4.508 1.431 9.337 1.415 14.494-.283 3.348-1.103 6.519-3.071 9.72-4.91.876-.504 1.735-1.076 2.734-1.7l.743.993c.99-.215 1.379-1.107 1.833-1.86 3.306-5.49 6.563-11.012 9.903-16.48 4.719-7.725 9.471-15.435 14.823-22.702 2.886-3.918 6.045-7.554 9.522-10.771 1.124-1.04 2.396-1.845 3.619-2.707 1.269-.893 2.439-.827 3.274.017 1.46 1.477 2.437 3.31 1.615 6.175-.334 1.164-.953 2.112-1.947 2.414-1.905.577-3.351 2.096-4.801 3.636-4 4.244-7.549 8.92-10.742 13.932-2.655 4.165-5.323 8.323-7.973 12.493-.389.612-.705 1.272-1.056 1.911l.202.345c.585-.255 1.175-.481 1.754-.769 4.989-2.477 9.964-5.048 14.97-7.417 3.091-1.462 6.223-2.724 9.351-3.866 1.515-.554 3.113-.866 4.584-.866 2.844.001 4.754 2.545 3.69 6.339-.458 1.632-1.322 2.673-2.709 2.841-4.726.575-9.351 2.808-13.941 5.026-6.233 3.014-12.419 6.311-18.617 9.529-2.152 1.118-4.095 2.73-5.79 4.8-1.494 1.823-2.38 3.838-2.087 5.952.301 2.172.59 4.403 1.281 6.336 2.84 7.942 5.47 16.043 9.277 23.283.389.738.734 1.517 1.075 2.296.615 1.405.724 2.993.252 4.778-.592 2.239-2.557 3.372-3.881 2.128-.873-.821-1.631-1.831-2.271-2.911-4.62-7.772-7.495-16.87-10.871-25.586-.578-1.492-.882-3.18-1.331-4.766-.091-.327-.265-.599-.518-1.148zM110.548 194.839c1.868 1.134 1.873 3.031 1.271 5.074-.826 2.806-1.758 5.612-2.831 8.37-1.095 2.813-1.61 5.619-2.108 8.437-.252 1.432.045 1.703 1.352 1.298 3.023-.938 5.838-2.814 8.567-4.91 5.866-4.506 10.652-10.305 14.875-16.801 5.547-8.534 10.689-17.324 15.386-26.334 5.53-10.608 11.109-21.214 15.828-32.178.266-.618.468-1.257.736-1.986-.407-.132-.674-.323-.977-.303-5.233.34-8.49-2.309-10.034-7.449-.572-1.902-.984-3.915-1.335-5.943-.608-3.516.212-7.277 1.138-11.041 1.56-6.341 4.458-12.26 7.624-18.098 2.966-5.467 6.456-10.574 9.993-15.646 5.49-7.873 11.42-15.333 17.432-22.716 1.219-1.497 2.519-2.909 3.777-4.365 1.506-1.743 3.104-1.76 3.852-.019.259.605.513 1.219.708 1.868.419 1.404.161 2.921-.8 4.323-1.015 1.481-2.181 2.844-3.292 4.249-5.053 6.393-10.219 12.682-15.135 19.2-5.218 6.918-10.06 14.172-13.949 21.991-1.848 3.715-3.536 7.601-4.709 11.485-1.179 3.901-1.577 7.884-.146 11.231 1.279 2.99 2.619 3.423 5.986 1.422 1.7-1.01 3.302-2.663 4.75-4.268 4.003-4.437 7.004-9.548 9.436-15.101 2.611-5.963 5.411-11.871 8.321-17.718 1.257-2.525 2.908-4.912 4.545-7.226 1.366-1.928 1.711-1.938 3.427-1.354 1.733.589 2.832 2.413 2.521 4.597-.434 3.042-1.448 5.915-2.964 8.678-3.752 6.84-7.637 13.61-11.362 20.462-2.326 4.278-4.517 8.631-6.667 12.995-3.563 7.234-6.982 14.529-10.574 21.749-4.366 8.778-8.805 17.525-13.293 26.248-4.27 8.296-8.851 16.439-13.831 24.328-5.108 8.091-11.073 15.258-18.472 20.631-4.145 3.011-8.419 5.058-12.894 5.848-1.354.24-2.407-.208-3.327-.869-2.476-1.776-4.187-4.168-3.464-8.375.954-5.55 2.837-10.858 6.018-15.844.896-1.405 1.807-2.808 2.796-4.136.517-.689 1.216-1.212 1.825-1.804zM273.218 389.55c-.302.47-.556.792-.732 1.148-3.188 6.421-6.166 12.938-8.488 19.619-2.388 6.87-4.366 13.82-6.557 20.73-.554 1.747-1.235 3.476-1.854 5.213-.351.981-.923 1.346-1.79 1.542-1.926.439-3.635-1.282-3.814-3.404-.088-1.045-.114-2.126-.054-3.215.063-1.154.223-2.295.96-3.461.461-.728.675-1.655.908-2.501 2.055-7.473 4.117-14.94 7.013-22.292 2.812-7.137 5.891-14.179 9.211-21.145.557-1.164 1.084-2.508 1.149-3.668.13-2.274 1.331-3.769 2.831-5.233.469-.459 1.009-.94 1.304-1.514 3.032-5.873 6.026-11.765 9.018-17.657.313-.617.516-1.283.821-1.905.822-1.676.979-3.209.317-4.586-.392-.813-.281-1.731-.045-2.765 1.525-6.655 5.13-10.421 11.349-12.351 3.592-1.114 6.975-.904 10.14.166 1.798.608 3.552 1.223 5.102 2.353 4.367 3.183 6.347 8.234 6.808 14.479.721 9.738-2.533 19.077-8.223 28.067-4.647 7.343-10.7 11.712-17.739 13.721-6.166 1.76-11.822 1.481-16.881-1.087-.185-.09-.394-.133-.754-.254zm3.8-7.74c.351.242.499.405.69.468 8.4 2.78 16.82-.57 23.927-9.23 5.49-6.69 8.344-14.39 8.676-22.498.129-3.142-.712-5.794-2.695-7.662-2.745-2.586-6.288-2.939-10.13-2.581-1.683.156-3.299.978-4.872 2.063-1.362.941-1.816 1.726-1.243 3.073.752 1.773.512 3.833-.062 5.997-1.106 4.178-2.86 8.176-4.853 12.085-2.652 5.207-5.42 10.362-8.126 15.545-.446.85-.831 1.731-1.312 2.74zM402.74 296.25c-1.875 1.266-3.527 2.399-5.19 3.498-2.425 1.603-4.953 2.66-7.441 2.844-4.532.334-8.213-1.363-9.393-6.184-.84-3.438-1.209-7.104-.014-11.096 1.56-5.211 3.983-9.995 7.991-13.842 4.131-3.964 8.61-7.126 13.15-10.155 6.224-4.152 12.56-7.815 19.127-10.413 1.414-.56 2.853-.928 4.277-1.29 1.764-.448 3.346-.151 4.77.562 1.013.507 2.049.498 3.251-.418.738.509 1.513.934 2.169 1.517 2.036 1.812 1.899 5.246-.304 8.039-1.284 1.626-2.627 3.194-3.915 4.818-4.92 6.203-9.171 12.896-13 19.879-3.721 6.785-7.287 13.641-10.123 20.8-.253.64-.438 1.298-.684 1.939-.555 1.461-.409 2.635.141 3.774 1.058 2.191-1.098 6.508-3.598 7.298-.269.086-.579.091-.806 0-1.713-.692-3.023-1.813-3.358-4.082-.237-1.604-.899-3.047-.383-4.918.725-2.618 1.478-5.234 2.245-7.848.269-.915.673-1.815.908-2.73.156-.599.119-1.213.18-1.992zm20.763-35.472c-.521-.839-1.015-.985-1.73-.648-1.405.661-2.83 1.222-4.227 1.926-6.232 3.141-12.252 7.006-18.086 11.44-3.197 2.431-6.421 4.859-9.02 8.297-1.737 2.298-3.313 4.793-3.61 7.562-.379 3.526.514 4.442 3.272 3.511 3.74-1.264 7.212-3.479 10.342-6.534 3.968-3.872 7.832-7.912 11.646-12.003 2.742-2.942 5.347-6.065 7.973-9.152 1.189-1.402 2.281-2.91 3.44-4.399zM258.772 356.948c-.441.369-.895.72-1.322 1.114-5.94 5.482-12.36 8.365-19.029 9.094-6.258.685-10.014-2.62-11.549-8.955-.857-3.53-.938-7.358.085-11.365 1.038-4.061 2.96-7.876 5.596-11.27 1.218-1.571 2.579-3.045 3.986-4.389 5.938-5.67 12.152-10.751 18.856-14.741 3.862-2.299 7.772-4.248 11.803-5.432 3.548-1.042 6.916-1.188 10.082-.282 3.076.88 6.084 5.393 5.267 10.68-.182 1.179-.344 2.369-.655 3.543-.199.752-.564 1.555-1.013 2.217-7.483 11.075-12.881 22.873-15.931 35.543-1.49 6.186-2.629 12.346-3.559 18.512-.237 1.563-.659 3.153-1.1 4.722-.304 1.078-.869 2.108-1.96 2.377-1.038.257-1.881-.059-2.34-.989-.647-1.307-1.075-2.666-.922-4.491.655-7.818 2.035-15.681 3.679-23.569.109-.526.214-1.051.315-1.575l.089-.59-.378-.154zm17.812-37.195c-.463-.95-1.234-1.093-2.066-1.161-3.575-.294-7.207.845-10.841 2.594-7.565 3.641-14.562 8.858-21.159 15.016-2.048 1.911-3.962 4.142-5.693 6.445-2.239 2.977-3.835 6.297-4.221 9.937-.419 3.945 1.364 6.346 4.789 5.917 5.891-.737 11.562-3.269 16.589-8.406 3.412-3.488 6.611-7.278 9.871-10.976 5.101-5.787 8.334-12.938 12.731-19.366zM335.639 144.279c-3.483 6.033-7.095 12-10.421 18.115-5.388 9.907-10.718 19.852-15.821 29.896-3.399 6.69-6.321 13.596-9.534 20.375-1.693 3.575-3.507 7.107-5.358 10.612-.741 1.403-1.655 2.758-2.629 4.001-1.408 1.796-2.963 3.002-4.989 2.771-.859-.099-1.153-.58-1.471-1.21-.72-1.431-1.021-2.905-.336-4.977.459-1.386 1.082-2.421 1.95-3.497 2.68-3.322 4.551-7.148 6.393-10.962 4.989-10.324 9.744-20.751 14.925-30.987 4.364-8.621 9.1-17.083 13.845-25.519 5.428-9.649 11.058-19.188 16.579-28.786 1.145-1.989 2.177-4.042 3.312-6.038.479-.839 1.058-1.635 1.649-2.394.764-.976 1.282-1.104 2.112-.574 1.922 1.228 2.486 3.398 1.898 6.165-.271 1.276-.814 2.626-1.472 3.816-3.534 6.401-7.144 12.761-10.726 19.135l.094.058zM304.062 156.573c-4.49 7.778-9.034 15.526-13.457 23.343-4.332 7.658-8.035 15.565-10.963 23.776-.988 2.773-2.276 5.487-3.498 8.203-.768 1.706-1.26 1.952-2.669 1.657-1.859-.388-2.436-1.368-2.43-3.616.006-2.425.64-4.731 1.713-7.146 1.319-2.968 2.34-6.041 3.495-9.066 2.32-6.079 5.175-11.964 8.358-17.682 4.268-7.665 8.683-15.251 13.119-22.82 5.072-8.653 10.217-17.264 15.376-25.864 1.287-2.146 2.717-4.21 4.145-6.26 1.183-1.697 1.569-1.797 2.867-.896 1.526 1.059 1.954 2.904 1.446 5.132-.304 1.336-.897 2.745-1.605 3.983-5.217 9.133-10.495 18.231-15.754 27.34l-.143-.084z"/><path clip-rule="evenodd" d="M194.634 311.943c-2.052-2.57-2.052-2.57-3.796-2.642-.453-.775.203-1.486.654-2.102 1.557-2.121 3.148-4.216 4.764-6.283 4.914-6.288 10.135-12.161 16.226-16.843 2.635-2.024 5.383-3.643 8.247-4.714.83-.312 1.723-.421 2.522-.369 1.802.119 1.956.645 2.073 2.734.155 2.763-.722 5.463-1.752 8.169-2.729 7.174-5.994 14.151-9.786 20.906-2.28 4.062-4.627 8.095-7.084 12.048-2.03 3.269-4.53 6.141-7.239 8.698-3.307 3.122-6.838 5.049-10.644 4.733-1.456-.121-2.634-.791-3.639-1.74-1.463-1.38-1.606-3.657-.482-6.243 1.173-2.696 2.715-5.168 4.496-7.488.379-.494.739-1.016 1.156-1.462 1.973-2.101 3.206-4.626 4.284-7.402zM187.607 264.13c-4.044 8.684-14.476 16.186-23.045 17.347.339-.459.576-.854.874-1.17 5.23-5.544 10.838-10.352 16.958-14.134 1.628-1.007 3.29-1.864 5.213-2.043zM330.524 402.143c-.689-.654-1.121-1.132-1.615-1.519-.72-.565-.873-1.02-.339-2.255.712-1.648 1.537-3.261 2.298-4.894 1.903-4.088 3.856-8.158 5.677-12.275 1.489-3.37 2.245-6.754 1.643-10.018-.04-.215.036-.488.08-.98.904-.112 1.746-.295 2.552-.306 5.506-.067 10.921.179 15.813 2.116 2.803 1.109 5.289 2.678 7.146 5.256 1.285 1.785.674 4.44-.547 6.42-2.155 3.496-4.989 5.782-8.005 7.817-6.676 4.507-13.545 7.853-20.65 9.61-1.255.31-2.51.683-3.765 1.008-.218.059-.437.025-.288.02zM287.785 104.549l-.826 1.234-.219-.176.877-1.188.168.13zM277.018 381.81c.481-1.009.866-1.89 1.312-2.74 2.706-5.183 5.474-10.338 8.126-15.545 1.992-3.909 3.746-7.907 4.853-12.085.574-2.164.814-4.224.062-5.997-.573-1.348-.119-2.132 1.243-3.073 1.573-1.086 3.189-1.907 4.872-2.063 3.842-.358 7.385-.005 10.13 2.581 1.983 1.868 2.824 4.521 2.695 7.662-.332 8.108-3.186 15.808-8.676 22.498-7.106 8.66-15.526 12.011-23.927 9.23-.191-.063-.34-.226-.69-.468zM423.503 260.778c-1.159 1.488-2.251 2.997-3.44 4.397-2.626 3.087-5.23 6.21-7.973 9.152-3.813 4.091-7.678 8.131-11.646 12.003-3.13 3.055-6.602 5.271-10.342 6.534-2.759.932-3.651.016-3.272-3.511.297-2.769 1.873-5.264 3.61-7.562 2.599-3.438 5.822-5.866 9.02-8.297 5.834-4.435 11.854-8.3 18.086-11.44 1.396-.704 2.821-1.265 4.227-1.926.715-.335 1.208-.189 1.73.65zM276.584 319.753c-4.397 6.428-7.63 13.579-12.731 19.365-3.26 3.697-6.459 7.487-9.871 10.976-5.027 5.138-10.698 7.669-16.589 8.406-3.424.429-5.208-1.972-4.789-5.917.386-3.64 1.982-6.96 4.221-9.937 1.731-2.304 3.645-4.534 5.693-6.445 6.597-6.157 13.593-11.375 21.159-15.016 3.634-1.749 7.266-2.888 10.841-2.594.832.069 1.603.212 2.066 1.162z" fill="none"/></svg>